<svg width="1157" height="1144" viewBox="0 0 1157 1144" fill="none" xmlns="http://www.w3.org/2000/svg">
<path d="M686.657 548.907C689.282 548.96 690.284 550.051 690.453 551.993C690.515 552.65 690.568 553.332 690.471 553.989C689.176 562.742 693.033 569.81 697.796 576.585C701.707 582.154 705.892 587.555 709.44 593.346C713.439 599.882 716.366 606.896 716.401 614.842C716.463 628.1 705.919 639.594 692.75 639.106C686.107 638.858 679.456 639.026 672.805 638.999C670.251 638.991 667.591 639.115 666.225 641.616C664.637 644.507 666.695 646.732 668.406 648.701C669.799 650.289 671.59 651.548 673.275 652.852C674.685 653.942 676.21 654.882 677.514 655.769C676.707 661.622 671.218 672.832 664.513 682.684C662.208 683.207 660.806 681.709 659.485 680.219C645.03 663.937 648.932 641.279 664.061 629.493C668.398 626.114 673.577 624.996 678.756 623.799C682.143 623.019 685.558 622.247 688.803 621.05C693.663 619.259 694.834 616.448 692.546 611.632C690.914 608.209 688.697 605.061 686.613 601.868C684.156 598.117 681.452 594.534 679.039 590.756C675.785 585.648 673.86 580.123 673.745 573.933C673.674 569.951 674.871 566.378 676.503 562.954C679.075 557.554 682.596 552.791 686.648 548.916L686.657 548.907ZM685.469 560.081C682.25 562.006 680.724 564.648 679.634 567.637C677 574.82 678.685 581.4 682.666 587.511C686.107 592.796 690 597.789 693.37 603.11C695.383 606.293 697.024 609.779 698.354 613.308C698.931 614.842 698.549 616.882 698.177 618.594C697.45 621.972 695.002 624.163 691.934 625.192C687.242 626.77 682.392 627.861 677.594 629.129C672.991 630.344 668.398 631.559 664.398 636.144C671.679 633.758 678.126 633.12 684.786 634.574C687.331 635.133 690.107 634.991 692.741 634.743C701.875 633.882 709.865 628.366 711.089 618.248C711.603 613.947 711.089 610.036 709.989 606.01C707.923 598.481 703.454 592.291 699.117 585.994C694.417 579.174 689.273 572.594 686.781 564.498C686.365 563.132 685.974 561.748 685.478 560.063L685.469 560.081ZM661.631 639.549C652.515 651.105 653.747 665.985 663.316 675.084C666.446 669.559 669.151 664.043 671.12 658.235C665.613 653.153 660.194 648.382 661.631 639.549Z" fill="black"/>
<path d="M614.496 764.485C613.858 765.691 613.211 767.393 612.173 768.812C608.262 774.169 604.263 779.463 600.228 784.722C598.197 787.373 595.882 787.489 594.304 784.58C592.273 780.829 590.206 776.847 589.382 772.723C587.262 762.161 583.431 752.513 577.356 743.582C574.785 739.804 573.472 735.184 571.486 730.998C569.969 727.806 570.696 724.994 573.233 722.937C577.995 719.079 582.881 715.364 587.936 711.896C590.57 710.096 592.92 711.151 593.319 714.397C594.401 723.123 599.013 730.244 603.473 737.383C608.271 745.063 610.94 753.577 614.018 761.957C614.239 762.569 614.275 763.252 614.496 764.485ZM575.494 727.07C576.47 732.825 578.917 737.224 581.684 741.268C587.768 750.154 592.166 759.598 593.789 770.329C594.215 773.14 595.501 775.818 596.565 779.099C601.363 773.761 605.54 769.096 609.548 764.635C607.57 755.262 604.138 747.076 599.403 739.396C595.323 732.772 591.005 726.245 589.284 718.467C589.195 718.068 588.752 717.74 588.176 717.004C583.937 720.374 579.822 723.638 575.485 727.078L575.494 727.07Z" fill="black"/>
<path d="M709.67 711.666C713.138 712.951 715.089 715.763 716.703 718.574C722.015 727.806 729.562 735.033 737.49 741.817C741.88 745.569 746.943 748.584 751.918 751.573C755.989 754.02 757.665 757.062 756.787 761.86C755.767 767.411 755.244 773.051 754.517 778.647C754.269 780.545 753.763 782.283 751.679 782.913C749.409 783.605 747.839 782.363 746.456 780.829C743.476 777.521 740.478 774.222 737.587 770.843C732.426 764.804 725.81 760.583 719.195 756.459C708.127 749.568 703.188 739.503 704.961 726.484C705.413 723.194 705.795 719.895 706.212 716.596C706.469 714.539 707.081 712.694 709.679 711.666H709.67ZM711.169 720.09C710.814 720.232 710.46 720.374 710.114 720.525C709.803 722.405 709.519 724.294 709.182 726.174C707.276 736.63 711.134 744.655 719.514 750.801C722.334 752.867 725.154 754.925 727.903 757.08C732.985 761.062 738.59 764.396 742.722 769.548C744.762 772.085 747.209 774.284 750.225 777.406C751.182 770.231 752.016 763.961 752.903 757.355C736.408 747.52 721.775 736.08 711.187 720.099L711.169 720.09Z" fill="black"/>
<path d="M852.821 661.533C852.067 662.944 851.535 664.362 850.657 665.506C842.321 676.335 833.266 686.515 823.095 695.667C821.126 697.432 818.891 698.94 816.665 700.376C813.889 702.168 811.53 702.026 809.686 699.277C806.369 694.319 803.283 689.167 800.56 683.864C798.991 680.804 800.197 679.084 803.966 677.487C815.778 672.468 825.844 665.01 834.508 655.61C835.856 654.146 836.973 652.47 838.277 650.963C840.884 647.947 843.128 647.805 845.762 650.705C847.766 652.914 849.566 655.326 851.278 657.765C852.005 658.793 852.271 660.15 852.812 661.525L852.821 661.533ZM814.093 695.978C827.688 686.063 837.736 673.86 847.748 661.188C845.85 658.758 844.263 656.727 842.427 654.386C832.513 667.457 819.379 675.563 804.95 682.56C808.019 687.065 810.803 691.162 814.093 695.978Z" fill="black"/>
<path d="M962.76 494.235C961.457 494.235 960.96 494.252 960.463 494.235C954.69 493.96 952.18 489.339 955.408 484.542C956.872 482.369 958.761 480.391 960.774 478.715C969.394 471.523 979.042 466.131 989.941 463.267C992.433 462.611 995.244 462.46 997.79 462.841C1001.97 463.453 1003.7 466.867 1001.58 470.503C999.856 473.456 997.665 476.312 995.103 478.556C986.899 485.748 977.322 490.59 966.893 493.72C965.332 494.19 963.62 494.146 962.769 494.252L962.76 494.235ZM959.452 489.623C962.955 490.528 965.74 489.41 968.56 488.435C978.43 485.012 987.29 479.966 994.606 472.41C995.794 471.186 997.621 470.113 996.734 467.861C986.403 466.592 965.004 478.972 959.452 489.623Z" fill="black"/>
<path d="M867.524 769.708C867.454 776.173 862.922 780.705 856.608 780.651C851.73 780.616 845.638 776.643 846.037 768.768C846.321 763.243 851.189 758.756 857.308 758.844C863.578 758.933 867.595 763.199 867.524 769.699V769.708ZM851.109 769.868C851.198 773.3 854.204 776.022 857.716 775.845C861.255 775.667 863.534 772.945 863.419 769.034C863.303 765.123 861.068 763.004 857.069 763.021C853.034 763.039 850.994 765.38 851.109 769.868Z" fill="black"/>
<path d="M461.555 155.619L448.306 123.064C449.805 121.592 451.108 120.377 452.332 119.1C455.188 116.12 458.114 113.203 460.81 110.081C462.167 108.511 463.24 106.862 466.034 107.545C468.508 110.285 469.075 114.09 470.211 117.69C472.561 125.13 474.991 132.535 477.58 139.896C478.165 141.554 479.496 142.956 480.826 145.022C484.586 143.488 488.275 142.104 491.876 140.508C502.668 135.71 513.798 135.905 525.069 138.149C531.685 139.461 537.76 141.971 542.93 146.467C555.62 157.491 558.609 181.293 542.691 193.912C533.876 200.9 523.721 202.993 512.672 200.377C500.265 197.442 490.191 190.489 481.491 181.603C475.611 175.591 470.512 168.815 464.792 162.058C461.342 163.955 459.01 167.609 456.571 171.015C447.082 184.308 442.178 199.074 443.57 215.506C444.422 225.607 447.02 235.336 455.206 242.102C460.287 246.306 466.016 249.853 471.825 253.001C477.651 256.158 483.894 258.579 490.049 261.098C497.223 264.042 504.779 265.168 512.503 264.814C518.134 264.557 523.748 263.936 529.362 263.483C530.523 263.386 531.676 263.288 532.838 263.226C535.073 263.102 537.432 263.226 538.425 265.541C539.533 268.13 537.778 269.984 535.924 271.492C530.107 276.236 524.821 281.468 520.485 287.632C513.541 297.511 511.607 308.082 517.115 319.105C522.826 330.545 532.182 336.487 545.271 335.804C545.599 335.786 545.936 335.768 546.273 335.768C550.477 335.697 551.816 337.365 550.406 341.267C548.703 345.949 546.788 350.552 544.854 355.456C543.356 356.937 541.272 356.946 539.037 356.83C517.168 355.669 501.444 339.307 503.387 314.68C504.14 305.146 506.863 296.083 511.776 287.782C512.539 286.497 513.425 285.29 514.259 284.04C513.922 283.668 513.594 283.295 513.257 282.923C511.714 282.79 510.18 282.532 508.637 282.55C494.731 282.728 481.092 281.043 467.985 276.298C453.308 270.986 441.318 261.923 433.372 248.425C426.739 237.145 425.009 224.836 428.104 211.879C431.864 196.156 439.793 182.632 449.53 170.03C453.184 165.303 457.157 160.834 461.52 155.619H461.555ZM455.33 124.776C458.868 134.043 461.067 143.23 465.856 151.575C471.151 160.807 476.507 169.879 484.143 177.409C492.78 185.913 502.269 192.999 514.365 195.81C525.575 198.409 537.609 194.187 543.835 185.94C551.647 175.591 551.878 153.766 533.113 145.563C517.248 138.628 501.453 139.524 486.147 147.718C486.04 147.771 486.165 148.259 486.2 148.755C487.991 148.613 489.818 148.658 491.574 148.312C501.01 146.441 510.437 146.902 519.731 148.88C527.96 150.627 535.525 153.757 540.775 161.029C546.273 168.656 543.941 177.763 535.401 181.665C526.967 185.514 518.8 184.281 510.898 180.504C494.252 172.558 482.236 159.681 474.068 143.434C470.14 135.622 467.825 127.002 464.766 118.754C464.402 117.779 463.888 116.856 463.231 115.446C460.393 118.799 457.946 121.69 455.339 124.776H455.33ZM439.101 197.655C435.243 203.667 433.159 210.265 432.193 217.129C430.951 225.953 431.235 234.75 435.545 242.856C441.886 254.802 451.224 263.714 463.462 269.523C476.942 275.917 491.326 277.903 506.038 278.089C510.517 278.143 515.004 277.69 519.012 280.573C522.524 276.75 525.876 273.114 529.379 269.31C527.561 269.478 525.912 269.656 524.271 269.78C512.627 270.64 501.107 270.738 489.845 266.703C476.773 262.02 464.491 255.901 453.317 247.663C449.424 244.789 446.408 241.109 444.165 236.701C439.527 227.594 437.611 217.972 438.134 207.835C438.312 204.43 438.764 201.042 439.092 197.655H439.101ZM485.42 154.032C489.135 157.943 492.018 161.33 495.263 164.319C501.914 170.429 509.319 175.458 517.993 178.287C523.376 180.042 528.803 180.078 533.964 177.55C539.046 175.059 541.121 169.746 538.31 165.614C536.412 162.82 533.884 160.16 531.055 158.342C522.968 153.154 513.665 152.099 504.309 151.806C498.385 151.629 492.443 151.877 485.402 154.032H485.42ZM509.115 310.432C507.2 317.039 507.679 322.324 508.849 327.485C511.536 339.333 518.764 347.528 530.541 350.294C540.234 352.565 540.473 352.316 543.373 343.164C543.453 342.907 543.267 342.561 543.125 341.905C524.653 340.025 513.638 329.428 509.107 310.432H509.115Z" fill="black"/>
<path d="M455.33 124.767C457.937 121.681 460.385 118.79 463.222 115.438C463.888 116.856 464.393 117.77 464.757 118.745C467.825 126.993 470.131 135.613 474.059 143.426C482.227 159.663 494.243 172.54 510.889 180.495C518.791 184.273 526.958 185.505 535.392 181.656C543.932 177.763 546.264 168.647 540.766 161.02C535.516 153.748 527.952 150.618 519.722 148.871C510.428 146.893 501.001 146.432 491.565 148.303C489.818 148.649 487.983 148.613 486.191 148.747C486.165 148.25 486.031 147.771 486.138 147.709C501.444 139.506 517.239 138.619 533.104 145.554C551.869 153.757 551.639 175.582 543.826 185.931C537.6 194.178 525.566 198.409 514.357 195.801C502.26 192.99 492.762 185.913 484.134 177.4C476.498 169.871 471.142 160.798 465.847 151.567C461.059 143.222 458.859 134.025 455.321 124.767H455.33Z" fill="white"/>
<path d="M439.101 197.655C438.773 201.051 438.321 204.439 438.143 207.835C437.62 217.972 439.536 227.585 444.174 236.702C446.417 241.109 449.432 244.789 453.326 247.663C464.5 255.901 476.782 262.02 489.854 266.703C501.116 270.738 512.636 270.64 524.28 269.78C525.93 269.656 527.57 269.478 529.388 269.31C525.885 273.114 522.533 276.759 519.021 280.573C515.013 277.69 510.517 278.143 506.047 278.09C491.335 277.903 476.951 275.917 463.471 269.523C451.224 263.714 441.895 254.802 435.554 242.856C431.253 234.751 430.96 225.953 432.202 217.129C433.168 210.265 435.252 203.659 439.11 197.655H439.101Z" fill="white"/>
<path d="M509.124 310.441C513.656 329.436 524.67 340.034 543.143 341.914C543.285 342.579 543.471 342.916 543.391 343.173C540.491 352.325 540.252 352.574 530.559 350.303C518.773 347.536 511.545 339.342 508.867 327.494C507.696 322.333 507.218 317.056 509.133 310.441H509.124Z" fill="white"/>
<path d="M908.824 823.786C904.434 812.994 900.062 802.245 895.575 791.231C897.073 789.759 898.377 788.544 899.601 787.267C902.456 784.287 905.383 781.37 908.079 778.248C909.436 776.678 910.509 775.029 913.302 775.712C915.776 778.452 916.344 782.256 917.479 785.857C919.829 793.297 922.259 800.702 924.849 808.063C925.434 809.721 926.764 811.122 928.094 813.189C931.855 811.655 935.544 810.271 939.144 808.675C949.937 803.877 961.067 804.072 972.338 806.316C978.954 807.628 985.028 810.138 990.199 814.634C1002.89 825.658 1005.88 849.46 989.959 862.079C981.144 869.067 970.99 871.16 959.94 868.544C947.534 865.609 937.459 858.656 928.76 849.77C922.88 843.758 917.781 836.982 912.061 830.225C908.611 832.122 906.279 835.776 903.84 839.182C894.351 852.475 889.447 867.241 890.839 883.673C891.69 893.774 894.289 903.503 902.474 910.269C907.556 914.473 913.285 918.02 919.093 921.168C924.92 924.325 931.163 926.746 937.317 929.265C944.492 932.209 952.048 933.335 959.772 932.981C965.403 932.724 971.017 932.103 976.63 931.65C977.792 931.553 978.945 931.455 980.106 931.393C982.341 931.269 984.7 931.393 985.694 933.708C986.802 936.297 985.046 938.151 983.193 939.658C977.375 944.403 972.09 949.635 967.753 955.799C960.809 965.678 958.876 976.249 964.383 987.272C970.094 998.712 979.45 1004.65 992.54 1003.97C992.868 1003.95 993.205 1003.94 993.542 1003.94C997.745 1003.86 999.085 1005.53 997.674 1009.43C995.972 1014.12 994.056 1018.72 992.123 1023.62C990.624 1025.1 988.54 1025.11 986.305 1025C964.436 1023.84 948.713 1007.47 950.655 982.847C951.409 973.313 954.131 964.25 959.044 955.949C959.807 954.663 960.694 953.457 961.528 952.207C961.191 951.835 960.862 951.462 960.525 951.09C958.982 950.957 957.448 950.699 955.905 950.717C942 950.895 928.361 949.21 915.253 944.465C900.576 939.153 888.587 930.09 880.641 916.592C874.007 905.312 872.278 893.003 875.373 880.046C879.133 864.323 887.061 850.799 896.799 838.197C900.452 833.47 904.425 829.001 908.788 823.786H908.824ZM902.598 792.943C906.137 802.21 908.336 811.397 913.125 819.742C918.419 828.974 923.776 838.046 931.411 845.576C940.049 854.08 949.538 861.166 961.634 863.977C972.843 866.575 984.878 862.354 991.103 854.107C998.916 843.758 999.147 821.933 980.381 813.73C964.516 806.795 948.722 807.691 933.415 815.885C933.309 815.938 933.433 816.426 933.469 816.922C935.26 816.78 937.087 816.825 938.843 816.479C948.279 814.608 957.705 815.069 966.999 817.046C975.229 818.794 982.794 821.924 988.044 829.196C993.542 836.823 991.21 845.93 982.669 849.832C974.236 853.681 966.068 852.448 958.167 848.671C941.521 840.725 929.505 827.848 921.337 811.601C917.408 803.788 915.094 795.169 912.034 786.921C911.671 785.946 911.156 785.023 910.5 783.613C907.662 786.965 905.214 789.857 902.607 792.943H902.598ZM886.369 865.822C882.512 871.834 880.428 878.432 879.461 885.296C878.22 894.12 878.503 902.917 882.813 911.023C889.154 922.969 898.492 931.881 910.73 937.69C924.21 944.084 938.594 946.07 953.307 946.256C957.785 946.31 962.273 945.857 966.281 948.739C969.793 944.917 973.145 941.281 976.648 937.477C974.83 937.645 973.18 937.823 971.54 937.947C959.896 938.807 948.376 938.905 937.113 934.87C924.042 930.187 911.759 924.068 900.585 915.83C896.692 912.956 893.677 909.276 891.433 904.868C886.795 895.761 884.88 886.139 885.403 876.002C885.58 872.597 886.032 869.209 886.361 865.822H886.369ZM932.688 822.199C936.404 826.11 939.286 829.497 942.532 832.486C949.183 838.596 956.588 843.625 965.261 846.453C970.644 848.209 976.071 848.245 981.233 845.717C986.314 843.225 988.389 837.913 985.578 833.781C983.68 830.987 981.153 828.327 978.324 826.509C970.236 821.321 960.933 820.266 951.577 819.973C945.654 819.796 939.712 820.044 932.67 822.199H932.688ZM956.384 978.599C954.468 985.206 954.947 990.491 956.118 995.652C958.805 1007.5 966.033 1015.69 977.81 1018.46C987.503 1020.73 987.742 1020.48 990.642 1011.33C990.722 1011.07 990.536 1010.73 990.394 1010.07C971.921 1008.19 960.907 997.595 956.375 978.599H956.384Z" fill="black"/>
<path d="M902.598 792.943C905.206 789.857 907.653 786.965 910.491 783.613C911.156 785.032 911.662 785.946 912.025 786.921C915.094 795.169 917.4 803.788 921.328 811.601C929.496 827.839 941.512 840.716 958.158 848.671C966.059 852.448 974.227 853.681 982.661 849.832C991.201 845.939 993.533 836.823 988.035 829.196C982.785 821.924 975.22 818.794 966.991 817.046C957.697 815.069 948.27 814.608 938.834 816.479C937.087 816.825 935.251 816.789 933.46 816.922C933.433 816.426 933.3 815.947 933.407 815.885C948.713 807.682 964.507 806.795 980.373 813.73C999.138 821.933 998.907 843.758 991.094 854.107C984.869 862.354 972.835 866.584 961.625 863.977C949.529 861.166 940.031 854.089 931.402 845.576C923.767 838.046 918.41 828.974 913.116 819.742C908.327 811.397 906.128 802.201 902.59 792.943H902.598Z" fill="white"/>
<path d="M886.37 865.822C886.042 869.218 885.589 872.606 885.412 876.002C884.889 886.139 886.804 895.752 891.442 904.869C893.686 909.276 896.701 912.956 900.594 915.83C911.768 924.068 924.051 930.187 937.122 934.87C948.385 938.905 959.905 938.807 971.549 937.947C973.198 937.823 974.839 937.645 976.657 937.477C973.154 941.281 969.802 944.926 966.29 948.74C962.282 945.857 957.785 946.31 953.316 946.257C938.603 946.07 924.219 944.084 910.74 937.69C898.492 931.881 889.163 922.969 882.822 911.023C878.521 902.918 878.229 894.12 879.47 885.296C880.437 878.432 882.521 871.826 886.379 865.822H886.37Z" fill="white"/>
<path d="M956.393 978.608C960.925 997.603 971.939 1008.2 990.411 1010.08C990.553 1010.75 990.74 1011.08 990.66 1011.34C987.76 1020.49 987.52 1020.74 977.827 1018.47C966.042 1015.7 958.814 1007.51 956.136 995.661C954.965 990.5 954.486 985.223 956.402 978.608H956.393Z" fill="white"/>
<path d="M786.371 1000.32C794.769 1008.39 803.141 1016.42 811.726 1024.66C810.954 1026.62 810.262 1028.25 809.659 1029.92C808.258 1033.8 806.777 1037.66 805.58 1041.61C804.977 1043.59 804.666 1045.54 801.837 1046.05C798.468 1044.55 796.392 1041.31 793.892 1038.49C788.721 1032.65 783.48 1026.87 778.124 1021.2C776.918 1019.92 775.126 1019.18 773.069 1017.84C770.258 1020.77 767.455 1023.54 764.813 1026.46C756.902 1035.23 746.659 1039.59 735.45 1042.13C728.87 1043.62 722.298 1043.81 715.745 1041.8C699.667 1036.9 687.242 1016.38 696.652 998.366C701.857 988.398 710.282 982.35 721.438 980.239C733.96 977.863 745.994 980.115 757.558 984.691C765.38 987.786 772.794 991.901 780.767 995.741C783.143 992.602 783.791 988.318 784.624 984.221C787.879 968.214 786.345 952.739 778.39 938.293C773.495 929.416 767.172 921.585 756.938 918.738C750.588 916.974 743.91 916.06 737.321 915.546C730.714 915.031 724.028 915.368 717.377 915.564C709.626 915.803 702.265 917.843 695.357 921.31C690.32 923.838 685.442 926.684 680.494 929.389C679.474 929.948 678.454 930.515 677.425 931.039C675.43 932.058 673.231 932.91 671.377 931.198C669.311 929.283 670.153 926.871 671.235 924.742C674.623 918.038 677.319 911.103 678.764 903.716C681.079 891.868 678.551 881.43 669.027 873.59C659.157 865.467 648.187 863.844 636.507 869.804C636.215 869.954 635.913 870.105 635.612 870.247C631.798 872.021 629.892 871.045 629.599 866.904C629.244 861.937 629.129 856.945 628.89 851.686C629.652 849.726 631.55 848.866 633.643 848.068C654.093 840.228 675.12 848.768 683.367 872.047C686.56 881.066 687.757 890.449 686.657 900.035C686.489 901.516 686.16 902.988 685.912 904.461C686.364 904.665 686.826 904.869 687.278 905.072C688.741 904.567 690.249 904.177 691.65 903.529C704.278 897.703 717.421 893.695 731.326 892.692C746.89 891.566 761.531 894.963 774.284 904.061C784.935 911.662 791.524 922.206 793.971 935.295C796.942 951.187 795.204 966.769 791.435 982.244C790.025 988.043 788.207 993.746 786.354 1000.29L786.371 1000.32ZM804.613 1025.96C797.607 1018.93 791.861 1011.44 784.083 1005.76C775.481 999.483 766.906 993.373 756.858 989.613C745.507 985.356 733.951 982.749 721.757 985.117C710.459 987.307 701.192 996.06 698.86 1006.13C695.933 1018.77 704.615 1038.8 725.092 1038.65C742.412 1038.52 756.468 1031.28 767.11 1017.56C767.18 1017.46 766.87 1017.07 766.639 1016.63C765.061 1017.49 763.376 1018.2 761.913 1019.22C754.056 1024.78 745.258 1028.19 735.964 1030.17C727.735 1031.91 719.549 1032.15 711.798 1027.63C703.666 1022.9 702.097 1013.63 708.304 1006.6C714.441 999.643 722.405 997.453 731.158 997.683C749.595 998.171 765.815 1005.04 779.889 1016.55C786.655 1022.08 792.278 1029.01 798.441 1035.3C799.168 1036.05 800.011 1036.68 801.19 1037.7C802.414 1033.48 803.478 1029.85 804.604 1025.96L804.613 1025.96ZM789.759 952.783C790.841 945.724 790.052 938.852 788.145 932.183C785.688 923.616 781.848 915.697 774.612 910.047C763.952 901.72 751.803 897.375 738.252 897.056C723.336 896.701 709.386 900.745 695.871 906.562C691.756 908.336 687.845 910.571 683.003 909.578C681.345 914.491 679.775 919.182 678.126 924.086C679.722 923.19 681.15 922.357 682.604 921.576C692.883 916.051 703.374 911.271 715.301 910.376C729.145 909.329 742.855 909.923 756.414 912.903C761.141 913.941 765.398 916.069 769.238 919.182C777.184 925.611 782.851 933.619 786.495 943.09C787.719 946.265 788.686 949.547 789.768 952.783H789.759ZM765.212 1011.48C760.228 1009.42 756.219 1007.5 752.034 1006.1C743.467 1003.23 734.661 1001.65 725.58 1002.6C719.957 1003.19 714.973 1005.35 711.293 1009.78C707.666 1014.12 707.932 1019.82 712.18 1022.46C715.053 1024.24 718.441 1025.64 721.766 1026.15C731.264 1027.6 740.194 1024.78 748.85 1021.23C754.339 1018.98 759.66 1016.33 765.212 1011.49V1011.48ZM679.891 878.273C678.951 871.453 676.361 866.833 673.195 862.594C665.923 852.865 655.982 848.325 644.09 850.595C634.308 852.466 634.193 852.794 635.266 862.328C635.292 862.594 635.612 862.833 636.002 863.383C653.632 857.583 668.016 862.78 679.882 878.282L679.891 878.273Z" fill="black"/>
<path d="M804.622 1025.96C803.496 1029.84 802.431 1033.48 801.208 1037.69C800.028 1036.67 799.186 1036.03 798.458 1035.29C792.304 1029.01 786.682 1022.07 779.906 1016.54C765.832 1005.03 749.612 998.162 731.175 997.674C722.422 997.444 714.459 999.643 708.322 1006.59C702.114 1013.62 703.684 1022.9 711.816 1027.62C719.567 1032.14 727.761 1031.91 735.982 1030.16C745.276 1028.18 754.073 1024.77 761.93 1019.22C763.385 1018.19 765.07 1017.48 766.657 1016.63C766.888 1017.07 767.198 1017.46 767.127 1017.55C756.485 1031.27 742.429 1038.51 725.11 1038.64C704.633 1038.79 695.96 1018.75 698.877 1006.13C701.21 996.06 710.477 987.299 721.775 985.108C733.969 982.749 745.524 985.356 756.875 989.604C766.914 993.373 775.499 999.475 784.101 1005.75C791.878 1011.43 797.625 1018.93 804.631 1025.95L804.622 1025.96Z" fill="#76A8D9"/>
<path d="M789.768 952.775C788.686 949.538 787.719 946.265 786.495 943.082C782.851 933.61 777.184 925.602 769.238 919.173C765.398 916.06 761.141 913.932 756.414 912.894C742.855 909.915 729.145 909.329 715.301 910.367C703.374 911.263 692.891 916.043 682.604 921.567C681.15 922.348 679.722 923.181 678.126 924.077C679.775 919.173 681.354 914.491 683.003 909.569C687.836 910.571 691.756 908.327 695.871 906.553C709.386 900.736 723.336 896.692 738.252 897.047C751.803 897.366 763.952 901.711 774.612 910.039C781.84 915.688 785.688 923.607 788.145 932.174C790.06 938.843 790.841 945.716 789.759 952.775H789.768Z" fill="#76A8D9"/>
<path d="M679.899 878.264C668.025 862.762 653.649 857.566 636.019 863.365C635.62 862.815 635.31 862.585 635.283 862.31C634.201 852.777 634.326 852.449 644.107 850.577C656 848.307 665.932 852.856 673.213 862.576C676.379 866.815 678.968 871.444 679.908 878.255L679.899 878.264Z" fill="#76A8D9"/>
<path d="M1045.62 721.775C1046.21 725.943 1046.6 730.014 1047.39 734.013C1049.09 742.589 1047.83 750.553 1042.78 757.718C1040.3 761.248 1037.43 764.511 1034.73 767.881C1033.48 769.442 1031.91 770.24 1029.91 769.557C1027.79 768.83 1027.52 767.021 1027.46 765.105C1027.22 757.798 1027.2 750.473 1026.64 743.192C1026.21 737.632 1025.1 732.116 1024.25 726.227C1021.69 726.227 1019.8 726.227 1017.91 726.227C1014.79 726.245 1011.65 726.44 1008.54 726.254C1003.07 725.926 997.701 724.879 992.575 722.848C984.807 719.762 977.623 715.878 971.788 709.608C964.321 701.582 964.294 690.595 971.087 681.992C977.588 673.754 986.137 668.903 996.326 667.449C1003.24 666.455 1009.84 668.797 1015.67 672.548C1024.12 677.984 1030.03 685.832 1034.84 694.47C1037.17 698.656 1038.85 703.205 1040.86 707.577C1041.27 708.464 1041.83 709.271 1042.47 710.371C1047.19 709.803 1051.61 708.189 1055.59 706.079C1062.63 702.345 1069.08 697.663 1075.01 692.226C1087.64 680.627 1088.31 662.447 1082.08 649.109C1078.82 642.121 1074.45 635.869 1069.22 630.238C1055.31 615.224 1038.29 605.947 1018.01 602.746C1016.39 602.489 1014.78 601.983 1013.23 601.434C1009.66 600.157 1008.42 597.922 1010.04 594.543C1011.38 591.741 1013.2 589.027 1015.36 586.81C1016.57 585.568 1018.88 585.027 1020.74 584.877C1028.12 584.274 1035.23 585.861 1042.25 587.989C1054.66 591.758 1065.78 597.877 1075.68 606.205C1085.63 614.567 1093.07 624.846 1098.84 636.472C1104.11 647.078 1105.74 658.217 1104.64 669.861C1103.95 677.142 1101.21 683.695 1096.79 689.477C1085.75 703.906 1071.33 713.599 1054.3 719.532C1051.66 720.454 1048.88 720.942 1045.61 721.775H1045.62ZM1018.89 714.654C1015.57 714.654 1012.74 714.787 1009.94 714.628C1001.86 714.157 994.225 712.153 987.529 707.409C983.095 704.269 979.61 700.252 978.005 694.958C975.965 688.209 979.956 682.791 986.997 682.897C989.587 682.932 992.238 683.589 994.721 684.396C1004.08 687.438 1011.46 693.565 1017.1 701.228C1026.54 714.069 1031.24 728.843 1032.14 744.824C1032.42 749.896 1031.93 755.111 1034.02 760.379C1038.34 756.193 1041.55 751.954 1043.02 746.145C1044.27 741.17 1043.28 736.497 1042.52 731.867C1041.55 725.961 1041.89 719.514 1037.4 714.574C1037.01 714.149 1037.01 713.359 1036.88 712.721C1036.45 710.69 1036.31 708.544 1035.58 706.628C1031.96 697.237 1026.68 688.803 1019.81 681.478C1013.79 675.058 1006.41 670.925 997.32 671.696C985.507 672.707 976.861 678.844 971.451 689.353C968.578 694.958 969.518 700.421 973.438 705.139C975.743 707.923 978.439 710.513 981.357 712.632C989.462 718.503 998.845 721.305 1008.64 722.458C1012.88 722.955 1017.5 723.682 1021.7 720.676C1020.74 718.627 1019.92 716.871 1018.89 714.645V714.654ZM1044.23 714.512C1044.36 714.973 1044.49 715.434 1044.61 715.887C1046.86 715.452 1049.15 715.168 1051.34 714.557C1066.64 710.264 1079.3 701.831 1089.89 690.045C1100.67 678.064 1103.23 664.167 1098.63 649.242C1090.54 623.01 1073.14 604.91 1047.83 594.641C1038.8 590.978 1029.38 588.034 1018.7 589.337C1017.23 591.439 1015.54 593.825 1013.55 596.662C1016.55 597.39 1018.97 597.922 1021.35 598.569C1026.94 600.086 1032.62 601.363 1038.07 603.269C1053.08 608.519 1065.13 618.203 1075.16 630.193C1084.49 641.349 1091.06 653.871 1089.95 669.222C1089.46 676.006 1087.9 682.347 1083.78 687.81C1075.28 699.117 1064.17 706.983 1051.02 712.029C1048.77 712.889 1046.5 713.687 1044.24 714.512H1044.23ZM1015.8 709.626C1014.89 707.79 1014.55 706.85 1014.01 706.052C1009.42 699.321 1003.27 694.319 996.158 690.524C993.843 689.291 991.263 688.404 988.691 687.863C983.875 686.852 981.357 689.788 982.838 694.461C984.15 698.576 986.864 701.591 990.447 703.959C997.958 708.925 1006.18 710.335 1015.79 709.626H1015.8Z" fill="black"/>
<path d="M1018.89 714.654C1019.92 716.88 1020.75 718.645 1021.7 720.685C1017.5 723.691 1012.87 722.964 1008.64 722.467C998.845 721.323 989.462 718.512 981.357 712.641C978.43 710.522 975.743 707.932 973.437 705.147C969.518 700.421 968.569 694.958 971.451 689.362C976.852 678.844 985.507 672.707 997.319 671.705C1006.42 670.934 1013.79 675.066 1019.81 681.487C1026.68 688.812 1031.96 697.237 1035.58 706.637C1036.31 708.553 1036.45 710.699 1036.88 712.73C1037.01 713.359 1037.01 714.158 1037.4 714.583C1041.88 719.523 1041.55 725.979 1042.52 731.876C1043.28 736.514 1044.28 741.188 1043.02 746.154C1041.55 751.954 1038.33 756.202 1034.02 760.388C1031.93 755.12 1032.42 749.905 1032.14 744.833C1031.24 728.852 1026.55 714.078 1017.1 701.237C1011.46 693.583 1004.07 687.446 994.721 684.405C992.238 683.598 989.586 682.941 986.997 682.906C979.955 682.8 975.965 688.218 978.004 694.967C979.61 700.261 983.086 704.27 987.529 707.418C994.225 712.162 1001.86 714.166 1009.94 714.636C1012.74 714.796 1015.57 714.663 1018.89 714.663V714.654Z" fill="#76A8D9"/>
<path d="M1044.23 714.512C1046.49 713.688 1048.76 712.889 1051.01 712.029C1064.16 706.974 1075.27 699.117 1083.78 687.81C1087.89 682.338 1089.45 676.007 1089.94 669.222C1091.05 653.871 1084.49 641.35 1075.15 630.193C1065.12 618.203 1053.07 608.528 1038.06 603.269C1032.61 601.363 1026.93 600.086 1021.34 598.569C1018.96 597.922 1016.55 597.39 1013.54 596.663C1015.54 593.825 1017.22 591.439 1018.69 589.337C1029.37 588.025 1038.79 590.978 1047.82 594.641C1073.13 604.91 1090.53 623.01 1098.62 649.242C1103.22 664.167 1100.66 678.064 1089.89 690.045C1079.29 701.831 1066.63 710.264 1051.33 714.557C1049.14 715.169 1046.85 715.452 1044.61 715.887C1044.48 715.426 1044.35 714.965 1044.22 714.512H1044.23Z" fill="#76A8D9"/>
<path d="M451.481 628.73C436.467 623.498 423.759 614.958 414.039 602.249C410.137 597.15 407.725 591.377 407.113 584.965C406.147 574.714 407.583 564.897 412.221 555.549C417.303 545.307 423.865 536.252 432.627 528.883C441.345 521.549 451.153 516.157 462.078 512.831C468.268 510.951 474.538 509.559 481.039 510.082C482.688 510.215 484.719 510.694 485.783 511.785C487.69 513.736 489.295 516.13 490.474 518.596C491.893 521.575 490.811 523.535 487.663 524.661C486.298 525.149 484.879 525.593 483.451 525.823C465.581 528.652 450.585 536.82 438.329 550.051C433.727 555.017 429.878 560.525 427.005 566.679C421.515 578.438 422.109 594.454 433.239 604.671C438.454 609.459 444.138 613.583 450.337 616.873C453.849 618.735 457.733 620.154 461.901 620.66C462.469 619.693 462.956 618.975 463.32 618.195C465.094 614.346 466.566 610.337 468.623 606.648C472.862 599.039 478.068 592.122 485.517 587.333C490.652 584.025 496.469 581.968 502.562 582.837C511.536 584.123 519.066 588.397 524.794 595.652C530.781 603.225 530.763 612.918 524.183 619.986C519.039 625.502 512.716 628.934 505.87 631.648C501.347 633.439 496.629 634.361 491.805 634.654C489.064 634.822 486.298 634.645 483.548 634.627C481.881 634.627 480.214 634.627 477.961 634.627C477.208 639.824 476.232 644.675 475.86 649.579C475.372 656 475.345 662.447 475.132 668.885C475.079 670.57 474.849 672.166 472.978 672.805C471.213 673.408 469.829 672.707 468.73 671.333C466.344 668.362 463.825 665.489 461.635 662.376C457.183 656.062 456.075 649.038 457.565 641.491C458.265 637.971 458.611 634.379 459.125 630.708C456.234 629.972 453.787 629.537 451.463 628.73H451.481ZM480.214 629.75C483.912 632.401 487.982 631.754 491.725 631.32C500.354 630.309 508.619 627.834 515.758 622.664C518.338 620.802 520.706 618.514 522.737 616.066C526.187 611.907 527.02 607.092 524.484 602.152C519.722 592.885 512.104 587.475 501.693 586.588C493.676 585.905 487.184 589.55 481.872 595.199C475.824 601.655 471.168 609.078 467.985 617.361C467.337 619.046 467.213 620.935 466.832 622.726C466.716 623.285 466.708 623.985 466.371 624.358C462.424 628.712 462.726 634.397 461.866 639.594C461.192 643.682 460.323 647.797 461.422 652.178C462.708 657.294 465.546 661.028 469.35 664.717C471.186 660.079 470.76 655.485 471.009 651.016C471.798 636.933 475.931 623.923 484.258 612.608C489.215 605.859 495.733 600.458 503.972 597.78C506.162 597.07 508.495 596.494 510.774 596.459C516.982 596.37 520.493 601.141 518.693 607.083C517.283 611.747 514.215 615.286 510.304 618.053C504.406 622.23 497.675 624.003 490.554 624.411C488.08 624.553 485.597 624.438 482.67 624.438C481.757 626.398 481.03 627.95 480.187 629.75H480.214ZM454.399 622.123C442.808 617.671 433.017 610.745 425.524 600.777C421.897 595.962 420.522 590.375 420.087 584.398C419.112 570.874 424.894 559.842 433.124 550.007C441.965 539.445 452.572 530.914 465.803 526.284C470.61 524.599 475.611 523.482 480.533 522.143C482.635 521.575 484.763 521.105 487.406 520.467C485.641 517.966 484.169 515.864 482.866 514.011C473.456 512.858 465.165 515.456 457.201 518.684C434.897 527.73 419.564 543.684 412.443 566.794C408.39 579.946 410.652 592.193 420.141 602.746C429.479 613.131 440.626 620.562 454.115 624.349C456.048 624.89 458.061 625.138 460.039 625.52C460.154 625.112 460.26 624.713 460.376 624.305C458.389 623.578 456.385 622.877 454.407 622.114L454.399 622.123ZM507.75 615.011C510.907 612.927 513.301 610.275 514.454 606.648C515.767 602.524 513.541 599.935 509.302 600.831C507.04 601.309 504.761 602.09 502.721 603.172C496.452 606.515 491.033 610.923 486.989 616.847C486.51 617.547 486.209 618.381 485.411 620.004C493.88 620.633 501.125 619.392 507.741 615.011H507.75Z" fill="black"/>
<path d="M482.688 624.429C481.775 626.389 481.047 627.941 480.205 629.741C483.903 632.392 487.973 631.745 491.716 631.311C500.345 630.3 508.61 627.825 515.749 622.655C518.329 620.793 520.697 618.505 522.728 616.057C526.178 611.898 527.011 607.083 524.475 602.143C519.713 592.876 512.095 587.466 501.684 586.579C493.667 585.896 487.175 589.541 481.863 595.19C475.815 601.646 471.159 609.069 467.976 617.352C467.328 619.037 467.204 620.926 466.823 622.717C466.708 623.276 466.699 623.977 466.362 624.349C462.415 628.703 462.717 634.388 461.857 639.585C461.183 643.673 460.314 647.788 461.413 652.169C462.699 657.286 465.537 661.019 469.341 664.708C471.177 660.07 470.751 655.477 471 651.007C471.789 636.924 475.922 623.915 484.249 612.599C489.206 605.85 495.724 600.449 503.963 597.771C506.153 597.062 508.486 596.485 510.765 596.45C516.973 596.361 520.484 601.132 518.684 607.074C517.274 611.738 514.206 615.277 510.295 618.044C504.397 622.221 497.666 623.994 490.545 624.402C488.071 624.544 485.588 624.429 482.661 624.429H482.688Z" fill="white"/>
<path d="M460.358 624.305C458.371 623.578 456.367 622.877 454.39 622.114C442.799 617.662 433.008 610.736 425.515 600.768C421.888 595.953 420.513 590.366 420.079 584.389C419.103 570.865 424.885 559.833 433.115 549.998C441.956 539.436 452.563 530.905 465.794 526.275C470.601 524.59 475.602 523.473 480.524 522.134C482.626 521.566 484.754 521.096 487.397 520.458C485.632 517.957 484.16 515.855 482.857 514.002C473.447 512.849 465.156 515.447 457.192 518.675C434.888 527.721 419.555 543.675 412.434 566.785C408.381 579.937 410.643 592.184 420.132 602.737C429.47 613.122 440.617 620.553 454.106 624.34C456.039 624.881 458.052 625.129 460.03 625.511C460.145 625.103 460.252 624.704 460.367 624.296L460.358 624.305Z" fill="white"/>
<path d="M330.935 500.469C328.417 497.374 326.652 495.104 324.781 492.931C319.903 487.238 314.777 481.73 310.139 475.851C306.814 471.638 304.535 466.796 303.949 461.271C303.009 452.323 307.346 445.903 313.917 440.795C321.233 435.101 329.401 431.128 338.624 429.293C348.548 427.324 358.507 425.967 368.625 425.976C369.53 425.976 370.434 425.976 372.022 425.976C371.286 424.38 370.86 423.174 370.222 422.109C361.637 407.805 353.106 393.465 344.353 379.258C342.26 375.862 341.861 372.962 343.963 369.485C347.217 364.12 350.303 358.648 353.212 353.088C355.154 349.39 358.675 349.727 360.732 352.893C366.488 361.735 372.447 370.425 378.238 379.249C384.357 388.579 390.645 397.819 396.321 407.415C399.088 412.097 401.358 417.321 402.599 422.597C404.949 432.601 403.034 441.655 394.627 448.723C389.847 452.74 384.242 454.478 378.425 455.649C369.814 457.378 361.14 457.476 352.379 456.314C347.244 455.64 341.985 455.906 336.779 455.755C336.629 455.755 336.469 455.755 336.318 455.755C330.164 456.172 327.734 459.711 330.341 465.395C332.106 469.235 334.722 472.711 337.161 476.214C341.01 481.73 345.346 486.936 348.885 492.638C352.503 498.483 353.975 504.85 352.299 511.953C350.295 520.467 344.663 524.511 336.762 526.151C327.379 528.102 317.837 527.198 308.366 527.322C304.845 527.366 301.315 527.304 297.795 527.136C294.762 526.994 294.23 526.435 293.733 523.322C292.97 518.498 292.128 513.683 291.587 508.832C291.108 504.46 292.066 503.245 296.349 502.881C303.666 502.26 311 501.932 318.334 501.445C322.129 501.187 325.925 500.859 330.918 500.469H330.935ZM375.906 431.962C370.284 431.643 364.918 430.765 359.642 431.173C352.21 431.74 344.77 432.858 337.48 434.454C328.39 436.44 320.24 440.688 313.625 447.348C308.428 452.572 306.743 458.788 309.962 465.768C311.168 468.384 312.339 471.16 314.157 473.332C321.783 482.467 329.649 491.397 337.232 500.167H346.96C346.614 499.316 346.41 498.766 346.171 498.225C343.413 491.991 339.076 486.83 334.908 481.553C331.015 476.631 327.042 471.754 325.002 465.688C322.661 458.709 325.446 453.299 332.585 451.845C336.425 451.064 340.451 450.94 344.388 450.993C354.764 451.135 365.14 451.747 375.516 451.72C378.877 451.72 382.229 450.31 386.353 449.37C382.664 443.234 379.391 437.788 375.897 431.962H375.906ZM348.051 373.893C348.565 374.957 348.796 375.525 349.097 376.048C359.855 394.529 370.585 413.028 381.413 431.474C384.313 436.414 387.488 441.203 390.547 446.062C398.609 440.609 400.781 432.379 398.351 423.511C396.347 416.185 393.119 409.472 389.004 403.229C381.697 392.135 374.061 381.262 366.568 370.292C363.668 366.036 360.786 361.77 357.398 356.768C354.064 362.887 351.093 368.324 348.06 373.884L348.051 373.893ZM299.373 521.265C300.251 521.433 300.996 521.691 301.732 521.708C311.204 521.895 320.675 522.223 330.137 522.107C333.268 522.072 336.478 521.132 339.484 520.112C345.719 517.993 348.627 512.601 347.599 505.249C332.886 505.834 318.121 506.393 303.364 507.04C301.156 507.138 298.974 507.679 296.846 507.998C296.136 513.124 297.28 517.265 299.364 521.265H299.373Z" fill="black"/>
<path d="M375.906 431.962C379.4 437.78 382.672 443.234 386.362 449.37C382.238 450.31 378.877 451.712 375.525 451.72C365.149 451.747 354.773 451.135 344.397 450.993C340.46 450.94 336.425 451.064 332.594 451.845C325.455 453.299 322.67 458.709 325.011 465.688C327.051 471.754 331.024 476.631 334.917 481.553C339.085 486.83 343.422 491.991 346.18 498.225C346.419 498.766 346.623 499.316 346.969 500.167H337.241C329.658 491.397 321.792 482.467 314.165 473.332C312.348 471.16 311.186 468.384 309.971 465.768C306.752 458.788 308.437 452.572 313.633 447.348C320.249 440.688 328.408 436.449 337.489 434.454C344.77 432.858 352.219 431.74 359.651 431.173C364.927 430.774 370.301 431.643 375.915 431.962H375.906Z" fill="#76A8D9"/>
<path d="M348.051 373.902C351.084 368.341 354.055 362.905 357.389 356.786C360.777 361.788 363.659 366.053 366.559 370.31C374.053 381.28 381.688 392.153 388.996 403.247C393.11 409.49 396.338 416.212 398.343 423.528C400.773 432.388 398.6 440.626 390.539 446.08C387.479 441.212 384.304 436.432 381.404 431.492C370.585 413.046 359.855 394.547 349.089 376.066C348.787 375.542 348.556 374.984 348.042 373.911L348.051 373.902Z" fill="#76A8D9"/>
<path d="M299.373 521.274C297.289 517.274 296.145 513.133 296.855 508.007C298.983 507.688 301.165 507.147 303.373 507.049C318.13 506.402 332.886 505.843 347.607 505.258C348.645 512.601 345.727 518.001 339.493 520.121C336.487 521.141 333.276 522.081 330.146 522.116C320.684 522.232 311.212 521.903 301.741 521.717C300.996 521.699 300.26 521.442 299.382 521.274H299.373Z" fill="#76A8D9"/>
<path d="M779.419 432.139C779.587 427.891 779.587 420.096 780.288 412.363C780.837 406.271 784.332 403.211 790.459 402.706C794.087 402.404 797.758 402.528 801.403 402.723C804.223 402.874 805.154 404.621 804.542 407.663C803.398 413.339 802.032 418.988 801.296 424.717C800.631 429.949 800.525 435.27 800.454 440.555C800.392 445.53 800.277 450.559 800.915 455.463C802.041 464.162 803.531 472.836 805.252 481.447C806.369 487.042 809.508 491.06 815.69 491.938C823.875 493.099 832.016 494.58 840.219 495.627C855.685 497.596 870.522 501.365 883.709 510.091C885.899 511.545 888.072 513.23 889.748 515.226C896.789 523.642 905.409 530.027 914.872 535.392C928.147 542.921 937.282 553.909 942.088 568.408C943.081 571.397 943.747 574.492 944.536 577.551C944.988 579.29 944.917 581.179 943.073 581.808C941.92 582.207 940.217 581.799 939.046 581.187C934.337 578.749 929.815 575.955 925.079 573.561C922.215 572.106 920.476 570.067 919.439 567.043C916.566 558.68 912.495 550.902 907.21 543.799C904.505 540.163 901.268 537.228 897.277 534.904C885.633 528.138 873.031 524.316 859.915 521.806C847.677 519.465 835.537 516.671 824.292 511.102C806.591 502.349 795.115 487.938 787.923 469.909C783.542 458.93 780.962 447.464 779.41 432.139H779.419ZM811.016 496.354C814.182 498.811 816.443 500.762 818.891 502.429C828.22 508.778 838.765 512.157 849.628 514.711C859.933 517.132 870.265 519.491 880.507 522.161C884.56 523.216 888.409 525.052 892.355 526.524C890.644 523.819 888.71 521.602 886.671 519.482C877.27 509.745 865.094 505.258 852.351 502.677C839.119 499.99 825.64 498.536 811.016 496.354ZM799.789 482.591C795.807 457.396 792.419 432.991 798.742 407.929C795.523 407.929 793.067 407.787 790.628 407.965C787.125 408.231 785.786 409.25 785.183 412.638C784.571 416.052 784.003 419.582 784.181 423.014C784.864 436.112 785.609 449.193 790.06 461.768C792.552 468.801 795.399 475.585 799.78 482.582L799.789 482.591ZM936.67 573.995C937.663 561.252 920.21 541.875 910.127 539.4C916.246 547.4 920.831 555.931 923.704 565.358C924.059 566.511 925.017 567.77 926.055 568.382C929.442 570.368 932.989 572.08 936.67 573.995Z" fill="black"/>
<path d="M811.025 496.354C825.64 498.536 839.128 499.99 852.36 502.677C865.094 505.267 877.279 509.745 886.68 519.482C888.719 521.602 890.653 523.819 892.364 526.524C888.418 525.043 884.569 523.216 880.516 522.161C870.273 519.491 859.951 517.132 849.637 514.711C838.774 512.157 828.229 508.787 818.9 502.429C816.452 500.762 814.2 498.819 811.025 496.354Z" fill="white"/>
<path d="M799.798 482.591C795.417 475.585 792.57 468.801 790.078 461.777C785.626 449.202 784.881 436.121 784.199 423.023C784.021 419.582 784.589 416.061 785.201 412.647C785.813 409.268 787.143 408.24 790.646 407.973C793.085 407.787 795.541 407.938 798.76 407.938C792.428 433 795.825 457.396 799.807 482.599L799.798 482.591Z" fill="white"/>
<path d="M936.679 573.995C932.998 572.08 929.451 570.368 926.064 568.382C925.026 567.77 924.059 566.519 923.713 565.358C920.849 555.931 916.264 547.408 910.136 539.4C920.219 541.875 937.663 561.252 936.679 573.995Z" fill="white"/>
<path d="M254.633 830.846C254.136 835.067 253.525 842.835 252.221 850.498C251.192 856.528 247.476 859.304 241.331 859.33C237.695 859.348 234.041 858.931 230.423 858.461C227.62 858.098 226.831 856.28 227.683 853.291C229.27 847.722 231.07 842.197 232.25 836.539C233.323 831.378 233.837 826.075 234.325 820.816C234.777 815.867 235.283 810.857 235.025 805.917C234.582 797.155 233.775 788.393 232.737 779.676C232.063 774.009 229.252 769.761 223.151 768.404C215.081 766.604 207.082 764.494 198.985 762.809C183.723 759.643 169.223 754.721 156.763 744.992C154.688 743.37 152.657 741.525 151.141 739.397C144.774 730.457 136.686 723.425 127.667 717.332C115.021 708.792 106.773 697.122 103.12 682.285C102.366 679.226 101.94 676.086 101.39 672.982C101.08 671.209 101.293 669.338 103.182 668.85C104.361 668.548 106.028 669.08 107.146 669.781C111.651 672.583 115.943 675.723 120.475 678.481C123.224 680.148 124.794 682.33 125.592 685.425C127.8 693.991 131.258 702.052 135.967 709.555C138.38 713.386 141.377 716.57 145.173 719.195C156.249 726.848 168.523 731.646 181.39 735.166C193.416 738.457 205.29 742.19 216.074 748.619C233.039 758.729 243.353 773.991 249.108 792.535C252.611 803.824 254.296 815.459 254.642 830.854L254.633 830.846ZM228.144 764.361C225.173 761.665 223.08 759.545 220.765 757.692C211.959 750.633 201.716 746.447 191.083 743.05C181 739.831 170.891 736.674 160.887 733.207C156.932 731.832 153.234 729.712 149.421 727.93C150.91 730.759 152.666 733.127 154.538 735.388C163.149 745.835 174.943 751.253 187.439 754.827C200.422 758.543 213.751 761.044 228.153 764.361H228.144ZM238.262 778.958C240.258 804.392 241.739 828.983 233.465 853.468C236.666 853.717 239.114 854.054 241.552 854.063C245.064 854.071 246.474 853.158 247.352 849.832C248.23 846.471 249.073 843.004 249.161 839.563C249.498 826.456 249.782 813.349 246.324 800.463C244.39 793.262 242.085 786.274 238.262 778.949V778.958ZM108.937 677.133C106.951 689.761 122.843 710.442 132.695 713.696C127.215 705.236 123.313 696.386 121.193 686.755C120.936 685.575 120.067 684.245 119.082 683.562C115.863 681.319 112.458 679.332 108.937 677.133Z" fill="black"/>
<path d="M228.144 764.361C213.742 761.044 200.413 758.543 187.43 754.827C174.934 751.253 163.14 745.835 154.529 735.388C152.657 733.118 150.901 730.75 149.412 727.93C153.225 729.712 156.923 731.841 160.878 733.207C170.882 736.674 180.991 739.831 191.075 743.05C201.708 746.447 211.95 750.633 220.756 757.692C223.062 759.545 225.164 761.665 228.135 764.361H228.144Z" fill="#76A8D9"/>
<path d="M238.262 778.958C242.085 786.283 244.399 793.271 246.324 800.472C249.782 813.357 249.498 826.456 249.161 839.572C249.073 843.013 248.23 846.48 247.352 849.841C246.483 853.167 245.073 854.08 241.552 854.071C239.114 854.071 236.666 853.726 233.465 853.477C241.73 828.992 240.258 804.401 238.262 778.967V778.958Z" fill="#76A8D9"/>
<path d="M108.937 677.133C112.458 679.332 115.863 681.319 119.082 683.562C120.067 684.245 120.927 685.575 121.193 686.755C123.313 696.377 127.215 705.236 132.695 713.697C122.843 710.442 106.96 689.761 108.937 677.133Z" fill="#76A8D9"/>
<path d="M473.252 753.896C477.997 756.317 482.528 758.401 486.83 760.884C491.148 763.376 491.778 766.879 488.648 770.825C486.182 773.929 483.389 776.785 480.604 779.614C474.804 785.529 468.667 791.134 463.16 797.306C459.116 801.838 455.072 806.6 454.115 813.047C453.317 818.403 454.727 821.401 459.356 824.23C467.257 829.045 475.984 831.617 484.843 833.967C495.778 836.867 506.481 840.592 516.228 846.374C531.871 855.641 544.207 868.065 551.248 885.217C557.341 900.062 555.691 914.437 549.049 928.6C548.623 929.504 548.171 930.4 547.603 931.216C545.44 934.32 542.841 934.391 541.005 931.154C538.957 927.545 537.29 923.731 535.481 919.989C534.541 918.047 533.68 916.069 532.749 914.118C530.905 910.243 530.692 906.58 533.467 902.891C537.103 898.049 538.514 892.533 537.76 886.458C536.962 880.055 533.725 875.346 528.2 872.127C521.15 868.03 513.115 867.196 505.391 865.396C497.977 863.658 490.483 862.266 483.043 860.616C475.203 858.878 467.621 856.191 460.97 851.739C446.116 841.789 435.03 822.359 439.092 802.254C440.919 793.209 445.406 785.201 450.647 777.627C456.066 769.806 462.788 763.199 469.652 756.716C470.601 755.82 471.709 755.102 473.252 753.905V753.896ZM538.744 873.821C539.196 874.867 539.666 875.905 540.101 876.951C544.163 886.742 544.801 896.249 537.591 905.019C535.72 907.29 535.995 909.595 537.157 911.999C538.957 915.741 540.748 919.483 542.611 923.199C543.027 924.033 543.693 924.751 544.792 926.285C546.202 921.638 547.586 917.781 548.535 913.825C552.126 898.829 548.153 885.651 538.647 873.865C538.123 872.872 537.751 871.755 537.068 870.894C530.461 862.682 522.959 855.606 513.425 850.719C502.757 845.247 491.938 840.45 480.134 837.816C472.383 836.087 464.801 833.373 457.884 829.311C450.363 824.886 446.763 819.264 450.035 809.225C451.632 804.321 454.532 800.312 457.458 796.375C463.595 788.092 471.239 781.157 478.804 774.195C481.216 771.978 483.335 769.433 485.606 767.021C485.02 766.329 484.772 765.85 484.382 765.611C483.238 764.937 482.058 764.316 480.861 763.74C473.616 760.281 472.091 760.396 466.548 766.329C461.351 771.89 456.341 777.565 452.066 783.977C448.395 789.493 445.521 795.266 444.067 801.518C440.396 817.33 445.929 830.65 456.678 842.046C463.267 849.034 471.975 852.644 480.994 854.994C491.556 857.743 502.367 859.561 513.044 861.867C520.999 863.587 528.936 865.423 535.294 871.054C536.394 872.03 537.6 872.899 538.762 873.812L538.744 873.821Z" fill="black"/>
<path d="M538.744 873.821C537.582 872.908 536.376 872.038 535.277 871.063C528.918 865.423 520.99 863.587 513.026 861.875C502.349 859.57 491.539 857.752 480.977 855.003C471.958 852.652 463.24 849.043 456.66 842.055C445.912 830.65 440.378 817.339 444.049 801.527C445.504 795.266 448.377 789.502 452.049 783.986C456.323 777.565 461.334 771.89 466.53 766.338C472.073 760.414 473.598 760.29 480.844 763.749C482.041 764.316 483.22 764.937 484.364 765.62C484.754 765.85 485.003 766.329 485.588 767.03C483.318 769.442 481.198 771.978 478.786 774.204C471.222 781.175 463.577 788.101 457.44 796.384C454.523 800.33 451.614 804.33 450.018 809.234C446.745 819.273 450.346 824.904 457.866 829.32C464.783 833.391 472.366 836.096 480.116 837.825C491.92 840.459 502.739 845.256 513.408 850.728C522.941 855.614 530.452 862.691 537.05 870.903C537.742 871.763 538.115 872.881 538.629 873.874L538.735 873.839L538.744 873.821Z" fill="#76A8D9"/>
<path d="M538.638 873.856C548.145 885.642 552.117 898.82 548.526 913.816C547.577 917.772 546.193 921.629 544.783 926.276C543.693 924.742 543.028 924.033 542.602 923.19C540.748 919.474 538.957 915.732 537.148 911.99C535.986 909.586 535.711 907.281 537.582 905.01C544.801 896.24 544.154 886.742 540.092 876.942C539.658 875.896 539.188 874.858 538.735 873.812L538.629 873.847L538.638 873.856Z" fill="#76A8D9"/>
<path d="M277.513 985.711C277.921 981.978 280.014 981.224 282.045 980.47C295.516 975.433 309.368 973.633 323.681 975.38C334.988 976.754 345.692 979.69 355.713 985.383C362.488 989.232 369.406 992.744 375.729 997.399C382.814 1002.62 390.024 1007.72 397.482 1012.37C408.576 1019.28 420.398 1020.71 432.707 1015.6C438.072 1013.37 443.473 1011.22 448.776 1008.85C462.513 1002.7 476.072 1004.3 489.366 1009.98C492.789 1011.45 495.795 1014.12 498.669 1016.61C501.418 1018.99 501.648 1021.36 499.201 1023.98C495.716 1027.72 491.858 1031.14 487.92 1034.41C487.149 1035.05 485.056 1034.68 483.894 1034.11C482.289 1033.33 481.003 1031.91 479.558 1030.79C464.712 1019.3 448.501 1017.63 431.146 1024.06C423.981 1026.71 416.913 1029.72 409.587 1031.8C397.669 1035.19 385.9 1034.42 374.789 1028.46C369.397 1025.57 363.969 1022.69 358.799 1019.43C340.664 1008 322.2 997.231 301.369 991.405C294.992 989.622 288.386 988.638 281.903 987.201C280.404 986.873 278.976 986.217 277.522 985.711H277.513ZM416.815 1024.41C416.78 1024.06 416.744 1023.71 416.717 1023.36C415.263 1023.13 413.8 1022.91 412.345 1022.67C406.226 1021.66 400.489 1019.53 395.327 1016.13C388.135 1011.37 381.085 1006.4 374.017 1001.46C366.958 996.521 359.748 991.875 352.024 987.973C335.485 979.61 318.138 976.976 299.914 980.08C297.112 980.559 294.407 981.658 291.277 982.581C292.119 983.326 292.323 983.663 292.58 983.716C311.106 987.627 327.973 995.661 344.291 1004.89C354.8 1010.83 364.918 1017.48 375.427 1023.45C389.013 1031.16 402.927 1030.04 416.806 1024.42L416.815 1024.41ZM447.668 1014.93C448.191 1015.33 448.315 1015.5 448.466 1015.52C448.953 1015.58 449.45 1015.62 449.947 1015.62C459.941 1015.69 469.271 1017.88 477.571 1023.79C479.966 1025.49 482.75 1026.66 485.659 1028.24C489.224 1025.88 492.709 1023.56 496.257 1021.2C486.67 1009.57 462.54 1006.6 447.676 1014.92L447.668 1014.93Z" fill="black"/>
<path d="M416.824 1024.41C402.936 1030.03 389.031 1031.15 375.445 1023.44C364.945 1017.47 354.826 1010.83 344.309 1004.88C327.982 995.653 311.124 987.618 292.598 983.707C292.341 983.654 292.137 983.317 291.294 982.572C294.425 981.65 297.121 980.55 299.932 980.071C318.147 976.976 335.494 979.601 352.042 987.964C359.766 991.866 366.967 996.513 374.035 1001.45C381.103 1006.4 388.153 1011.37 395.345 1016.12C400.498 1019.53 406.244 1021.65 412.363 1022.67C413.818 1022.9 415.281 1023.12 416.735 1023.35C416.771 1023.7 416.806 1024.05 416.833 1024.4L416.824 1024.41Z" fill="white"/>
<path d="M447.676 1014.93C462.539 1006.6 486.67 1009.58 496.256 1021.21C492.709 1023.57 489.215 1025.88 485.659 1028.25C482.75 1026.67 479.965 1025.5 477.571 1023.8C469.27 1017.89 459.941 1015.69 449.947 1015.63C449.45 1015.63 448.953 1015.59 448.466 1015.53C448.324 1015.51 448.2 1015.34 447.667 1014.94L447.676 1014.93Z" fill="white"/>
<path d="M849.3 45.352C852.972 44.5361 854.346 46.2743 855.721 47.9504C864.828 59.08 870.992 71.6108 873.954 85.7201C876.295 96.8675 876.969 107.944 874.805 119.269C873.342 126.922 872.242 134.611 869.875 142.087C867.214 150.476 864.704 158.945 862.709 167.503C859.738 180.229 862.203 191.882 871.001 201.885C874.841 206.248 878.61 210.673 882.565 214.93C892.808 225.953 895.663 239.309 894.564 253.728C894.28 257.444 892.719 261.142 891.282 264.663C889.908 268.033 887.744 269.008 884.472 267.536C879.807 265.435 875.32 262.898 870.965 260.211C870.114 259.688 869.786 257.586 869.945 256.309C870.167 254.535 871.107 252.859 871.701 251.13C877.803 233.367 874.158 217.484 862.478 203.135C857.663 197.211 852.537 191.482 848.201 185.222C841.15 175.032 838.082 163.636 840.148 151.203C841.15 145.164 842.135 139.098 843.554 133.156C848.538 112.307 852.777 91.3603 851.579 69.7573C851.216 63.1416 850.019 56.5792 849.291 49.9812C849.123 48.4559 849.291 46.8951 849.291 45.352H849.3ZM857.539 189.7C857.858 189.558 858.186 189.407 858.505 189.265C858.248 187.811 857.982 186.357 857.743 184.902C856.732 178.783 856.891 172.664 858.461 166.687C860.652 158.342 863.081 150.068 865.485 141.785C867.888 133.511 869.963 125.184 871.178 116.617C873.768 98.2598 870.673 80.9934 861.867 64.7468C860.51 62.2459 858.603 60.0466 856.714 57.3773C856.28 58.4149 856.022 58.7164 856.058 58.9824C858.319 77.7831 856.147 96.3354 852.67 114.764C850.427 126.629 847.402 138.353 845.141 150.21C842.215 165.561 847.757 178.366 857.548 189.7H857.539ZM876.455 215.852C876.242 216.482 876.127 216.65 876.153 216.792C876.251 217.28 876.375 217.759 876.535 218.229C879.692 227.709 880.623 237.251 877.696 247.006C876.854 249.826 876.641 252.833 876.082 256.096C879.47 258.704 882.787 261.258 886.157 263.865C894.085 251.041 889.119 227.239 876.455 215.843V215.852Z" fill="black"/>
<path d="M857.539 189.7C847.748 178.366 842.206 165.561 845.132 150.21C847.393 138.344 850.426 126.629 852.661 114.763C856.146 96.3353 858.319 77.783 856.049 58.9823C856.013 58.7163 856.271 58.4148 856.705 57.3772C858.585 60.0465 860.501 62.2459 861.858 64.7467C870.655 80.9933 873.759 98.2597 871.169 116.617C869.963 125.184 867.879 133.502 865.476 141.785C863.073 150.068 860.643 158.351 858.452 166.687C856.883 172.664 856.723 178.783 857.734 184.902C857.973 186.357 858.239 187.811 858.497 189.265C858.177 189.407 857.849 189.558 857.53 189.7H857.539Z" fill="white"/>
<path d="M876.455 215.852C889.127 227.248 894.085 251.05 886.156 263.874C882.778 261.275 879.461 258.721 876.082 256.105C876.641 252.842 876.854 249.835 877.696 247.015C880.623 237.251 879.692 227.718 876.534 218.238C876.375 217.768 876.251 217.28 876.153 216.801C876.126 216.659 876.242 216.491 876.455 215.861V215.852Z" fill="white"/>
<path d="M685.469 560.072C685.965 561.757 686.356 563.141 686.772 564.506C689.264 572.603 694.408 579.183 699.108 586.003C703.445 592.299 707.914 598.489 709.981 606.018C711.08 610.036 711.595 613.956 711.08 618.257C709.865 628.375 701.866 633.891 692.732 634.752C690.098 635 687.322 635.142 684.777 634.583C678.126 633.129 671.67 633.758 664.389 636.153C668.389 631.559 672.982 630.353 677.585 629.138C682.383 627.87 687.234 626.77 691.925 625.2C694.993 624.172 697.441 621.972 698.168 618.602C698.541 616.891 698.922 614.851 698.345 613.317C697.015 609.788 695.375 606.302 693.361 603.119C689.992 597.798 686.098 592.805 682.658 587.519C678.676 581.409 676.991 574.829 679.625 567.646C680.715 564.666 682.241 562.023 685.46 560.09L685.469 560.072Z" fill="#76A8D9"/>
<path d="M661.64 639.54C660.203 648.373 665.622 653.144 671.129 658.226C669.151 664.034 666.447 669.55 663.325 675.075C653.756 665.985 652.523 651.096 661.64 639.54Z" fill="#76A8D9"/>
<path d="M987.529 266.011C989.516 264.734 991.077 263.847 992.513 262.792C995.892 260.309 1001.61 259.848 1005.39 263.43C1006.95 264.911 1008.76 266.135 1010.4 267.536C1013.86 270.49 1013.65 273.097 1009.74 275.261C1007.71 276.378 1005.63 277.416 1003.51 278.356C995.404 281.956 988.239 287.073 981.082 292.208C980.142 292.882 979.167 293.538 978.164 294.106C973.429 296.784 972.232 296.642 968.028 292.962C966.778 291.871 965.474 290.815 964.339 289.609C961.182 286.266 960.792 283.171 963.088 279.207C964.747 276.334 966.724 273.638 968.303 270.72C969.456 268.601 970.928 266.392 969.669 263.555C966.707 264.149 964.747 266.082 962.787 268.148C957.909 273.283 956.269 279.961 953.812 286.293C951.48 292.296 948.784 298.158 946.079 304.011C944.891 306.574 940.404 308.543 937.583 308.108C935.074 307.718 934.036 305.732 934.843 302.796C935.624 299.941 936.581 297.121 937.202 294.239C938.931 286.151 940.341 277.992 942.239 269.94C944.128 261.905 947.507 254.509 953.803 248.869C958.096 245.029 962.982 242.564 968.986 242.324C975.167 242.076 979.521 244.931 982.882 249.587C985.33 252.975 987.05 256.753 987.024 261.125C987.024 262.544 987.308 263.971 987.52 266.002L987.529 266.011ZM982.084 269.292C982.776 263.501 982.829 258.109 979.707 253.161C976.284 247.734 971.354 245.916 965.172 247.689C959.381 249.348 955.497 253.294 952.314 258.083C948.19 264.273 946.443 271.323 945.024 278.506C943.525 286.062 941.84 293.582 940.244 301.111C941.707 300.606 942.692 299.897 943.162 298.939C945.281 294.647 947.409 290.354 949.227 285.938C950.797 282.116 951.781 278.063 953.316 274.223C955.719 268.21 959.763 263.43 965.172 259.874C968.241 257.852 971.646 257.728 973.535 259.431C975.956 261.604 976.107 264.335 975.061 267.199C973.952 270.25 972.737 273.274 971.194 277.265C975.38 274.205 978.776 271.722 982.093 269.301L982.084 269.292ZM973.296 290.612C984.47 283.898 995.165 277.478 1006.29 270.8C1003.75 268.787 1001.35 266.889 998.57 264.69C996.637 265.825 994.739 266.738 993.054 267.962C988.789 271.066 984.567 274.241 980.435 277.513C976.621 280.528 972.09 282.754 969.057 287.215C970.529 288.394 971.779 289.405 973.287 290.612H973.296Z" fill="black"/>
<path d="M982.084 269.292C978.768 271.722 975.362 274.205 971.185 277.256C972.719 273.265 973.943 270.25 975.052 267.191C976.098 264.326 975.947 261.595 973.526 259.422C971.629 257.719 968.223 257.852 965.164 259.865C959.763 263.422 955.719 268.21 953.307 274.214C951.773 278.045 950.788 282.107 949.219 285.929C947.401 290.346 945.272 294.647 943.153 298.93C942.683 299.888 941.698 300.597 940.235 301.103C941.84 293.565 943.516 286.053 945.015 278.498C946.443 271.314 948.181 264.264 952.305 258.074C955.497 253.285 959.382 249.339 965.164 247.681C971.345 245.907 976.276 247.725 979.699 253.152C982.82 258.11 982.767 263.501 982.075 269.284L982.084 269.292Z" fill="#76A8D9"/>
<path d="M973.296 290.612C971.788 289.397 970.538 288.394 969.066 287.215C972.099 282.754 976.63 280.537 980.444 277.513C984.576 274.241 988.798 271.066 993.063 267.962C994.739 266.738 996.646 265.825 998.579 264.69C1001.35 266.88 1003.76 268.787 1006.3 270.8C995.174 277.487 984.479 283.898 973.305 290.612H973.296Z" fill="#76A8D9"/>
<path d="M297.733 690.524C299.79 691.694 301.298 692.661 302.903 693.441C306.672 695.277 309.749 700.119 308.33 705.13C307.745 707.205 307.505 709.369 307.026 711.479C306.024 715.922 303.621 716.951 299.888 714.494C297.954 713.217 296.065 711.852 294.247 710.415C287.286 704.917 279.42 700.962 271.545 697.024C270.507 696.501 269.478 695.951 268.503 695.321C263.927 692.377 263.492 691.251 264.787 685.815C265.168 684.201 265.497 682.56 266.038 680.99C267.527 676.645 270.081 674.853 274.657 675.04C277.974 675.173 281.282 675.66 284.599 675.705C287.011 675.731 289.654 676.015 291.578 673.576C289.671 671.235 287.046 670.393 284.315 669.621C277.495 667.697 270.826 669.355 264.078 670.127C257.684 670.854 251.237 671.2 244.798 671.537C241.978 671.679 238.138 668.628 237.216 665.932C236.391 663.529 237.668 661.684 240.639 661.028C243.53 660.389 246.465 659.919 249.312 659.13C257.276 656.895 265.151 654.341 273.159 652.275C281.149 650.209 289.272 649.756 297.192 652.701C302.583 654.705 307.044 657.88 310.059 663.085C313.154 668.442 312.658 673.621 310.104 678.773C308.25 682.516 305.696 685.797 301.821 687.81C300.562 688.466 299.435 689.38 297.733 690.524ZM292.296 687.234C297.741 685.149 302.539 682.684 305.466 677.612C308.676 672.051 307.984 666.846 303.532 662.199C299.373 657.853 294.07 656.248 288.341 655.654C280.945 654.882 273.886 656.629 266.871 658.713C259.484 660.904 252.052 662.917 244.639 665.01C245.765 666.074 246.856 666.606 247.92 666.579C252.7 666.455 257.497 666.34 262.251 665.888C266.357 665.498 270.41 664.478 274.516 664.052C280.954 663.387 287.073 664.735 292.74 667.856C295.95 669.63 297.653 672.583 297.032 675.049C296.234 678.206 293.893 679.607 290.869 680.015C287.649 680.449 284.413 680.786 280.165 681.283C284.812 683.562 288.598 685.416 292.287 687.225L292.296 687.234ZM269.337 689.38C280.484 696.146 291.143 702.62 302.238 709.36C302.832 706.167 303.399 703.161 304.047 699.684C302.14 698.505 300.446 697.246 298.584 696.332C293.848 694 289.077 691.747 284.253 689.61C279.81 687.641 275.731 684.662 270.374 684.059C270.011 685.912 269.709 687.491 269.337 689.388V689.38Z" fill="black"/>
<path d="M292.296 687.234C288.607 685.424 284.82 683.571 280.173 681.292C284.421 680.795 287.658 680.467 290.877 680.024C293.901 679.616 296.243 678.215 297.041 675.057C297.662 672.592 295.959 669.639 292.749 667.865C287.082 664.735 280.963 663.387 274.524 664.061C270.418 664.487 266.366 665.506 262.26 665.897C257.506 666.349 252.709 666.464 247.929 666.588C246.856 666.615 245.774 666.083 244.647 665.019C252.061 662.926 259.493 660.913 266.88 658.722C273.904 656.638 280.954 654.9 288.35 655.663C294.07 656.257 299.373 657.862 303.541 662.207C307.984 666.854 308.685 672.06 305.474 677.62C302.548 682.693 297.75 685.158 292.305 687.242L292.296 687.234Z" fill="white"/>
<path d="M269.337 689.38C269.709 687.482 270.011 685.903 270.374 684.05C275.731 684.653 279.81 687.633 284.253 689.601C289.077 691.739 293.848 693.991 298.584 696.323C300.446 697.237 302.14 698.496 304.047 699.676C303.399 703.152 302.832 706.167 302.238 709.351C291.135 702.611 280.484 696.137 269.337 689.371V689.38Z" fill="white"/>
<path d="M682.853 135.09C678.019 132.083 673.86 133.112 669.852 133.547C667.75 133.777 665.728 134.699 663.662 135.276C657.977 136.863 654.519 135.107 653.073 129.485C652.169 125.973 651.477 122.328 651.344 118.719C651.166 113.903 653.525 111.66 658.368 111.802C671.306 112.174 687.739 119.499 692.661 132.527C696.536 142.796 694.807 151.718 687.624 159.681C685.079 162.51 682.223 165.109 679.243 167.476C673.967 171.689 671.643 177.453 670.348 183.714C668.344 193.443 666.89 192.582 659.565 189.886C653.517 187.652 651.007 184.459 651.175 178.038C651.557 164.009 657.552 153.261 669.852 146.157C673 144.339 676.033 142.273 678.889 140.029C680.334 138.903 681.265 137.121 682.853 135.081V135.09ZM688.803 138.318C685.141 141.617 682.143 144.623 678.818 147.213C676.352 149.128 673.461 150.512 670.765 152.134C661.241 157.854 656.833 166.386 656.833 177.382C656.833 183.413 657.312 183.971 663.99 184.716C664.433 183.28 664.992 181.772 665.373 180.229C667.005 173.551 670.508 168.106 675.776 163.681C678.693 161.233 681.522 158.644 684.13 155.868C688.732 150.964 689.805 145.102 688.812 138.327L688.803 138.318ZM658.838 130.301C667.351 129.042 675.102 126.088 683.536 128.705C677.541 121.273 664.487 116.05 656.629 118.063C657.33 121.965 658.048 125.911 658.838 130.301Z" fill="black"/>
<path d="M688.803 138.318C689.796 145.084 688.715 150.955 684.121 155.859C681.514 158.635 678.685 161.215 675.767 163.672C670.508 168.097 667.005 173.542 665.365 180.22C664.983 181.772 664.433 183.271 663.981 184.707C657.312 183.971 656.833 183.404 656.824 177.373C656.824 166.386 661.223 157.846 670.756 152.126C673.452 150.503 676.343 149.128 678.809 147.204C682.134 144.614 685.132 141.608 688.794 138.309L688.803 138.318Z" fill="#76A8D9"/>
<path d="M658.838 130.301C658.048 125.902 657.33 121.956 656.629 118.063C664.487 116.05 677.541 121.282 683.536 128.705C675.102 126.089 667.351 129.042 658.838 130.301Z" fill="#76A8D9"/>
<path d="M676.938 299.027C676.938 296.473 676.849 295.285 676.955 294.123C677.319 290.195 679.962 288.128 683.766 288.82C688.183 289.627 692.564 290.611 696.989 291.312C701.618 292.039 706.283 292.713 710.956 293.05C719.337 293.671 725.58 290.115 728.737 282.328C732.08 274.108 733.978 265.523 732.444 256.504C732.054 254.198 731.832 251.804 731.974 249.472C732.204 245.667 734.501 243.956 737.942 245.366C742.261 247.139 746.633 249.09 750.438 251.751C756.299 255.848 757.142 260.282 754.792 267.173C751.005 278.267 746.119 288.66 736.461 295.959C723.274 305.927 708.597 312.534 692.182 315.105C690.054 315.442 687.97 316.072 685.833 316.285C681.718 316.702 679.891 315.593 678.995 311.558C677.984 306.991 677.461 302.326 676.938 299.027ZM738.492 251.627C739.734 267.474 738.794 281.885 728.861 294.114C734.288 291.41 738.714 287.827 741.472 282.79C744.469 277.318 747.103 271.607 749.409 265.807C751.404 260.77 750.358 258.278 745.888 255.422C743.964 254.19 741.8 253.312 738.492 251.636V251.627ZM720.268 299.098C707.365 301.156 695.224 296.34 681.691 294.629C683.092 300.003 684.245 304.393 685.407 308.862C698.514 309.306 709.413 304.384 720.259 299.098H720.268Z" fill="black"/>
<path d="M738.492 251.627C741.809 253.303 743.964 254.181 745.888 255.414C750.358 258.278 751.404 260.761 749.409 265.798C747.103 271.598 744.469 277.309 741.472 282.781C738.714 287.818 734.28 291.41 728.861 294.106C738.793 281.876 739.734 267.465 738.492 251.618V251.627Z" fill="white"/>
<path d="M720.268 299.098C709.413 304.384 698.514 309.297 685.416 308.862C684.245 304.393 683.101 300.003 681.7 294.629C695.233 296.34 707.374 301.156 720.277 299.098H720.268Z" fill="white"/>
<path d="M575.494 727.07C579.822 723.629 583.937 720.365 588.184 716.995C588.761 717.74 589.204 718.06 589.293 718.459C591.022 726.236 595.332 732.763 599.412 739.388C604.138 747.067 607.57 755.253 609.557 764.627C605.557 769.087 601.371 773.743 596.574 779.091C595.51 775.818 594.224 773.131 593.798 770.32C592.175 759.589 587.768 750.154 581.693 741.259C578.926 737.224 576.478 732.825 575.503 727.061L575.494 727.07Z" fill="#76A8D9"/>
<path d="M228.587 123.49C229.846 123.995 231.611 124.474 233.128 125.361C238.857 128.696 244.532 132.137 250.181 135.613C253.019 137.36 253.374 139.657 250.651 141.519C247.122 143.922 243.388 146.388 239.362 147.629C229.075 150.822 219.87 155.62 211.613 162.59C208.119 165.534 203.659 167.317 199.694 169.72C196.67 171.556 193.806 171.121 191.5 168.807C187.173 164.47 182.969 159.983 179.005 155.318C176.939 152.888 177.755 150.441 180.938 149.704C189.514 147.727 196.121 142.415 202.763 137.245C209.911 131.684 218.105 128.155 226.122 124.235C226.707 123.951 227.381 123.854 228.587 123.499V123.49ZM195.367 166.128C200.998 164.568 205.113 161.677 208.847 158.511C217.067 151.549 226.007 146.201 236.506 143.479C239.256 142.769 241.792 141.209 244.94 139.816C239.131 135.595 234.068 131.915 229.217 128.385C220.091 131.321 212.305 135.569 205.148 141.067C198.976 145.802 192.928 150.769 185.372 153.278C184.982 153.411 184.707 153.881 184.024 154.529C187.811 158.404 191.483 162.164 195.349 166.111L195.367 166.128Z" fill="black"/>
<path d="M195.376 166.119C191.509 162.164 187.838 158.404 184.051 154.538C184.734 153.89 185.009 153.42 185.399 153.287C192.955 150.769 199.003 145.811 205.175 141.076C212.332 135.586 220.118 131.329 229.243 128.394C234.094 131.915 239.158 135.604 244.967 139.825C241.819 141.217 239.282 142.769 236.533 143.488C226.033 146.21 217.085 151.558 208.873 158.519C205.14 161.685 201.016 164.576 195.393 166.137L195.376 166.119Z" fill="#76A8D9"/>
<path d="M197.424 338.376C198.684 338.881 200.448 339.36 201.965 340.247C207.694 343.581 213.369 347.022 219.018 350.499C221.856 352.246 222.211 354.543 219.488 356.405C215.959 358.808 212.225 361.273 208.199 362.515C197.912 365.708 188.707 370.505 180.45 377.476C176.956 380.42 172.496 382.202 168.532 384.606C165.508 386.441 162.643 386.007 160.337 383.692C156.01 379.356 151.806 374.868 147.842 370.204C145.776 367.774 146.592 365.326 149.775 364.59C158.351 362.613 164.958 357.301 171.6 352.13C178.748 346.57 186.942 343.04 194.959 339.121C195.544 338.837 196.218 338.739 197.424 338.385V338.376ZM164.204 381.014C169.835 379.453 173.95 376.562 177.684 373.396C185.904 366.435 194.844 361.087 205.344 358.365C208.093 357.655 210.629 356.094 213.777 354.702C207.969 350.481 202.905 346.801 198.054 343.271C188.929 346.206 181.142 350.454 173.986 355.953C167.813 360.688 161.765 365.654 154.209 368.164C153.819 368.297 153.544 368.767 152.861 369.414C156.648 373.29 160.32 377.05 164.186 380.996L164.204 381.014Z" fill="black"/>
<path d="M164.204 381.005C160.337 377.05 156.666 373.29 152.879 369.423C153.562 368.776 153.837 368.306 154.227 368.173C161.783 365.654 167.831 360.697 174.003 355.961C181.16 350.472 188.946 346.215 198.072 343.28C202.923 346.8 207.986 350.49 213.795 354.711C210.647 356.103 208.11 357.655 205.361 358.373C194.861 361.096 185.913 366.444 177.701 373.405C173.968 376.571 169.844 379.462 164.222 381.023L164.204 381.005Z" fill="#76A8D9"/>
<path d="M711.178 720.099C721.766 736.08 736.399 747.52 752.894 757.355C752.016 763.961 751.173 770.24 750.216 777.406C747.201 774.275 744.753 772.076 742.713 769.548C738.572 764.405 732.967 761.062 727.894 757.08C725.145 754.925 722.325 752.867 719.505 750.801C711.125 744.655 707.267 736.63 709.174 726.174C709.519 724.294 709.794 722.414 710.105 720.525C710.459 720.383 710.814 720.241 711.16 720.09L711.178 720.099Z" fill="white"/>
<path d="M254.748 213.006C258.216 214.292 260.167 217.103 261.781 219.914C267.093 229.146 274.64 236.373 282.568 243.158C286.958 246.909 292.022 249.924 296.997 252.913C301.067 255.36 302.743 258.402 301.865 263.2C300.845 268.751 300.322 274.391 299.595 279.987C299.347 281.885 298.841 283.623 296.757 284.253C294.487 284.945 292.917 283.703 291.534 282.169C288.554 278.861 285.557 275.562 282.666 272.183C277.504 266.144 270.889 261.923 264.273 257.799C253.205 250.908 248.266 240.843 250.039 227.824C250.492 224.534 250.873 221.235 251.29 217.936C251.547 215.879 252.159 214.034 254.757 213.006H254.748ZM256.247 221.43C255.892 221.572 255.538 221.714 255.192 221.865C254.882 223.745 254.598 225.634 254.261 227.514C252.354 237.97 256.212 245.995 264.592 252.141C267.412 254.207 270.232 256.265 272.982 258.42C278.063 262.402 283.668 265.736 287.8 270.888C289.84 273.425 292.288 275.624 295.303 278.746C296.261 271.571 297.094 265.301 297.981 258.695C281.486 248.86 266.854 237.42 256.265 221.439L256.247 221.43Z" fill="black"/>
<path d="M256.247 221.431C266.836 237.411 281.468 248.851 297.963 258.686C297.085 265.293 296.243 271.571 295.285 278.737C292.27 275.606 289.822 273.407 287.783 270.88C283.641 265.736 278.036 262.393 272.964 258.411C270.215 256.256 267.394 254.199 264.574 252.132C256.194 245.987 252.336 237.961 254.243 227.505C254.589 225.625 254.864 223.745 255.174 221.856C255.529 221.714 255.884 221.572 256.229 221.422L256.247 221.431Z" fill="white"/>
<path d="M137.315 538.682C139.435 535.649 142.654 534.488 145.785 533.636C156.063 530.843 164.967 525.38 173.542 519.429C178.287 516.139 182.49 512.007 186.64 507.954C190.046 504.637 193.407 503.795 197.823 505.861C202.931 508.255 208.252 510.197 213.485 512.317C215.258 513.035 216.81 513.966 216.89 516.148C216.979 518.516 215.391 519.722 213.547 520.671C209.591 522.711 205.645 524.777 201.637 526.719C194.48 530.178 188.724 535.498 183.058 540.855C173.578 549.812 162.59 552.029 150.449 547.009C147.381 545.741 144.286 544.535 141.209 543.294C139.284 542.522 137.661 541.467 137.324 538.691L137.315 538.682ZM145.847 539.365C145.9 539.746 145.944 540.119 145.997 540.5C147.736 541.281 149.491 542.034 151.221 542.841C160.852 547.346 169.596 545.644 177.666 539.099C180.379 536.9 183.084 534.691 185.869 532.581C191.012 528.679 195.659 524.103 201.69 521.407C204.661 520.077 207.41 518.268 211.197 516.148C204.501 513.399 198.648 510.996 192.476 508.468C178.774 521.93 163.991 533.175 145.847 539.365Z" fill="black"/>
<path d="M145.847 539.374C163.991 533.184 178.774 521.939 192.476 508.477C198.639 511.004 204.501 513.408 211.197 516.157C207.41 518.276 204.661 520.085 201.69 521.416C195.659 524.112 191.012 528.688 185.869 532.59C183.084 534.7 180.38 536.908 177.666 539.108C169.596 545.652 160.852 547.346 151.221 542.85C149.492 542.043 147.736 541.289 145.997 540.509C145.944 540.128 145.9 539.755 145.847 539.374Z" fill="white"/>
<path d="M814.093 695.978C810.812 691.162 808.027 687.065 804.95 682.56C819.379 675.563 832.504 667.457 842.427 654.386C844.254 656.727 845.85 658.758 847.748 661.188C837.736 673.869 827.688 686.072 814.093 695.978Z" fill="#76A8D9"/>
<path d="M959.461 489.623C965.013 478.972 986.412 466.592 996.743 467.86C997.63 470.104 995.803 471.186 994.615 472.41C987.299 479.957 978.439 485.012 968.569 488.435C965.749 489.41 962.964 490.537 959.461 489.623Z" fill="white"/>
<path d="M113.061 248.177C111.757 248.177 111.261 248.195 110.764 248.177C104.991 247.902 102.481 243.282 105.709 238.484C107.172 236.311 109.061 234.334 111.074 232.658C119.694 225.466 129.343 220.074 140.242 217.209C142.734 216.553 145.545 216.402 148.09 216.784C152.267 217.396 153.997 220.81 151.877 224.446C150.157 227.399 147.966 230.254 145.403 232.498C137.2 239.69 127.623 244.532 117.194 247.663C115.633 248.133 113.921 248.088 113.07 248.195L113.061 248.177ZM109.753 243.566C113.256 244.47 116.041 243.353 118.861 242.377C128.731 238.954 137.59 233.908 144.907 226.352C146.095 225.129 147.922 224.056 147.035 221.803C136.704 220.535 115.305 232.915 109.753 243.566Z" fill="black"/>
<path d="M109.762 243.565C115.313 232.915 136.712 220.535 147.044 221.803C147.931 224.047 146.104 225.128 144.916 226.352C137.599 233.899 128.74 238.954 118.87 242.377C116.05 243.353 113.265 244.479 109.762 243.565Z" fill="white"/>
<path d="M552.321 422.588C556.259 422.677 559.948 424.513 563.46 426.863C568.976 430.552 572.559 435.642 574.181 442.027C576.203 450.018 570.04 456.616 562.005 455.046C550.911 452.882 544.597 445.096 541.91 435.669C541.733 435.03 541.671 434.347 541.644 433.682C541.36 427.315 543.054 423.253 552.321 422.579V422.588ZM549.457 426.277C548.499 428.849 547.595 430.472 547.311 432.192C545.963 440.289 558.405 451.357 565.437 450C568.807 449.344 570.767 447.011 569.88 443.615C568.045 436.573 563.726 431.421 557.217 428.29C555.079 427.262 552.552 427.049 549.457 426.286V426.277Z" fill="black"/>
<path d="M549.457 426.269C552.552 427.04 555.079 427.244 557.217 428.273C563.726 431.403 568.036 436.556 569.88 443.597C570.767 446.994 568.807 449.335 565.437 449.982C558.396 451.348 545.954 440.28 547.311 432.175C547.595 430.454 548.499 428.831 549.457 426.26V426.269Z" fill="#76A8D9"/>
<path d="M82.0842 388.685C86.0217 388.774 89.7109 390.61 93.2227 392.96C98.7387 396.649 102.321 401.739 103.944 408.124C105.966 416.115 99.8029 422.713 91.7683 421.143C80.6741 418.979 74.36 411.193 71.6729 401.766C71.4955 401.127 71.4335 400.444 71.4069 399.779C71.1231 393.412 72.8169 389.35 82.0842 388.676V388.685ZM79.2198 392.374C78.262 394.946 77.3574 396.569 77.0736 398.289C75.7257 406.386 88.1678 417.454 95.2003 416.097C98.5702 415.441 100.53 413.108 99.6433 409.712C97.8075 402.67 93.4887 397.518 86.9794 394.387C84.8422 393.359 82.3148 393.146 79.2198 392.383V392.374Z" fill="black"/>
<path d="M79.2287 392.374C82.3237 393.146 84.8511 393.35 86.9884 394.379C93.4976 397.509 97.8076 402.661 99.6522 409.703C100.539 413.099 98.5791 415.441 95.2092 416.088C88.1678 417.454 75.7257 406.386 77.0826 398.281C77.3664 396.56 78.2709 394.937 79.2287 392.365V392.374Z" fill="#76A8D9"/>
<path d="M359.766 720.622C358.844 712.65 367.064 706.229 372.616 706.38C380.393 706.593 387.621 713.457 387.39 720.8C387.151 728.409 380.819 734.297 372.988 734.191C365.025 734.084 359.713 728.63 359.775 720.614L359.766 720.622ZM381.99 720.41C381.99 715.346 378.841 711.772 374.372 711.754C368.918 711.736 364.812 715.541 364.927 720.498C365.034 725.385 369.219 729.517 373.875 729.349C378.62 729.171 381.998 725.456 381.99 720.41Z" fill="black"/>
<path d="M381.99 720.41C381.99 725.456 378.62 729.171 373.875 729.349C369.21 729.517 365.033 725.385 364.927 720.498C364.821 715.541 368.927 711.736 374.372 711.754C378.841 711.763 381.99 715.337 381.99 720.41Z" fill="white"/>
<path d="M235.646 408.958C234.724 400.985 242.945 394.565 248.496 394.715C256.274 394.928 263.501 401.792 263.271 409.135C263.031 416.744 256.699 422.633 248.869 422.526C240.905 422.42 235.593 416.966 235.655 408.949L235.646 408.958ZM257.87 408.745C257.87 403.681 254.722 400.107 250.252 400.09C244.798 400.072 240.692 403.876 240.808 408.834C240.914 413.72 245.1 417.853 249.756 417.684C254.5 417.507 257.879 413.791 257.87 408.745Z" fill="black"/>
<path d="M257.87 408.745C257.87 413.791 254.5 417.507 249.756 417.684C245.091 417.853 240.914 413.72 240.808 408.834C240.701 403.876 244.807 400.072 250.252 400.09C254.722 400.099 257.87 403.672 257.87 408.745Z" fill="white"/>
<path d="M889.048 385.989C888.125 378.017 896.346 371.596 901.898 371.747C909.675 371.96 916.903 378.824 916.672 386.166C916.433 393.775 910.101 399.664 902.27 399.557C894.306 399.451 888.994 393.997 889.056 385.98L889.048 385.989ZM911.271 385.776C911.271 380.713 908.123 377.139 903.653 377.121C898.2 377.103 894.094 380.908 894.209 385.865C894.315 390.751 898.501 394.884 903.157 394.715C907.901 394.538 911.28 390.822 911.271 385.776Z" fill="black"/>
<path d="M911.28 385.776C911.28 390.822 907.91 394.538 903.166 394.715C898.501 394.884 894.324 390.751 894.218 385.865C894.111 380.908 898.217 377.103 903.662 377.121C908.132 377.13 911.28 380.704 911.28 385.776Z" fill="white"/>
<path d="M851.109 769.868C850.994 765.38 853.034 763.03 857.069 763.021C861.068 763.004 863.294 765.123 863.418 769.034C863.534 772.945 861.254 775.667 857.716 775.845C854.204 776.022 851.207 773.3 851.109 769.868Z" fill="white"/>
</svg>
