 <svg
        width="742"
        height="325"
        viewBox="0 0 742 925"
        fill="none"
        xmlns="http://www.w3.org/2000/svg"
      >
        <rect width="742" height="924.982" fill="black" />
        <circle cx="359.669" cy="497.16" r="195.926" fill="#617bff" />
        <path
          d="M484.464 299.529L507.378 284.91L561.656 370.031L538.742 384.649L538.816 384.68L533.829 376.856L548.965 367.2L504.508 297.474L489.35 307.139L484.452 299.442L484.464 299.529Z"
          fill="black"
        />
        <path
          d="M479.027 444.591L474.116 436.894L396.692 486.28L391.686 478.429L391.66 478.508C391.968 478.285 392.265 478.035 392.564 477.84C422.625 458.675 452.678 439.508 482.724 420.34C483.222 420.022 483.767 419.771 484.366 419.445L489.268 427.142L481.607 432.029L486.513 439.726L478.916 444.566L479.027 444.591Z"
          fill="black"
        />
        <path
          d="M381.856 463.003L376.935 455.26L415.497 430.667L405.604 415.174L413.5 410.134L413.39 410.137L423.317 425.694L454.105 406.059L458.992 413.725L381.754 462.973L381.856 463.003Z"
          fill="black"
        />
        <path
          d="M413.5 410.142L398.691 386.92L406.433 381.985L406.323 381.987L416.24 397.535L447.028 377.905L451.925 385.58L413.399 410.149L413.5 410.142Z"
          fill="black"
        />
        <path
          d="M406.434 381.985L391.62 358.758L399.362 353.819L399.252 353.821L409.169 369.374L439.958 349.744L444.854 357.418L406.337 381.988L406.434 381.985Z"
          fill="black"
        />
        <path
          d="M507.088 437.505L511.989 445.202L504.197 450.17L509.099 457.868L486.008 472.619L471.294 449.527L479.027 444.597L478.916 444.572L488.705 459.916L496.402 455.019L491.564 447.467L507.166 437.517L507.088 437.505Z"
          fill="black"
        />
        <path
          d="M402.165 341.146L397.278 333.48L451.406 298.956L456.275 306.608L456.273 306.53L402.054 341.12L402.165 341.146Z"
          fill="black"
        />
        <path
          d="M456.275 306.608L479.511 291.79L484.464 299.527L484.462 299.454L461.24 314.281L456.301 306.539L456.275 306.608Z"
          fill="black"
        />
        <path
          d="M391.688 478.431L384.023 483.318L374.182 467.892L381.88 463L381.778 462.975L391.686 478.509L391.688 478.431Z"
          fill="black"
        />
        <path
          d="M528.183 402.267L533.118 410.005L517.647 419.869L517.721 419.9L512.786 412.158L528.271 402.283L528.183 402.267Z"
          fill="black"
        />
        <path
          d="M517.647 419.868L522.591 427.615L507.089 437.503L507.176 437.502L502.241 429.759L517.721 419.885L517.647 419.868Z"
          fill="black"
        />
        <path
          d="M538.742 384.649L543.686 392.396L528.183 402.28L528.27 402.278L523.331 394.536L538.838 384.647L538.742 384.649Z"
          fill="black"
        />
        <path
          d="M399.362 353.82L394.428 346.082L402.165 341.147L402.055 341.122L406.994 348.865L399.251 353.781L399.362 353.82Z"
          fill="black"
        />
        <path
          d="M399.251 353.78L406.994 348.845L402.054 341.103L456.3 306.511L461.24 314.281L484.467 299.467L489.365 307.164L504.51 297.504L548.966 367.231L533.83 376.886L538.839 384.645L523.354 394.52L528.294 402.262L512.809 412.137L517.744 419.879L502.264 429.753L507.199 437.496L491.565 447.465L496.376 455.013L488.678 459.91L478.917 444.565L486.515 439.721L481.608 432.024L489.274 427.141L484.372 419.444C483.773 419.769 483.228 420.02 482.73 420.339C452.678 439.507 422.633 458.674 392.593 477.838C392.272 478.043 391.974 478.284 391.689 478.506L381.782 462.971L458.987 413.715L454.1 406.049L423.312 425.684L413.385 410.127L451.912 385.557L447.015 377.883L416.227 397.513L406.309 381.965L444.826 357.396L439.93 349.721L409.141 369.351L399.251 353.78Z"
          fill="white"
        />
        <path
          d="M234.749 672.88L211.7 687.285L158.215 601.664L181.264 587.259L181.19 587.228L186.104 595.098L170.879 604.612L214.686 674.749L229.934 665.225L234.76 672.967L234.749 672.88Z"
          fill="black"
        />
        <path
          d="M241.532 527.874L246.371 535.616L324.25 486.951L329.183 494.848L329.209 494.77C328.9 494.99 328.6 495.237 328.3 495.429C298.062 514.315 267.832 533.201 237.61 552.089C237.109 552.404 236.561 552.649 235.959 552.969L231.129 545.227L238.835 540.411L234 532.669L241.643 527.9L241.532 527.874Z"
          fill="black"
        />
        <path
          d="M338.87 510.365L343.719 518.153L304.93 542.387L314.679 557.972L306.736 562.937L306.846 562.936L297.065 547.287L266.096 566.635L261.28 558.925L338.972 510.396L338.87 510.365Z"
          fill="black"
        />
        <path
          d="M306.736 562.929L321.329 586.288L313.541 591.151L313.651 591.149L303.879 575.51L272.91 594.853L268.085 587.134L306.837 562.923L306.736 562.929Z"
          fill="black"
        />
        <path
          d="M313.541 591.15L328.138 614.514L320.35 619.381L320.461 619.38L310.688 603.736L279.719 623.079L274.894 615.359L313.637 591.149L313.541 591.15Z"
          fill="black"
        />
        <path
          d="M213.406 534.7L208.576 526.958L216.414 522.062L211.584 514.32L234.811 499.784L249.31 523.011L241.532 527.869L241.642 527.895L231.996 512.461L224.254 517.286L229.022 524.882L213.328 534.688L213.406 534.7Z"
          fill="black"
        />
        <path
          d="M317.43 632.029L322.246 639.739L267.799 673.759L263.002 666.062L263.003 666.141L317.541 632.055L317.43 632.029Z"
          fill="black"
        />
        <path
          d="M263.003 666.062L239.63 680.665L234.749 672.881L234.75 672.955L258.109 658.344L262.976 666.131L263.003 666.062Z"
          fill="black"
        />
        <path
          d="M329.181 494.85L336.892 490.034L346.589 505.55L338.846 510.371L338.948 510.397L329.185 494.772L329.181 494.85Z"
          fill="black"
        />
        <path
          d="M191.985 569.74L187.122 561.956L202.684 552.236L202.61 552.204L207.473 559.992L191.898 569.722L191.985 569.74Z"
          fill="black"
        />
        <path
          d="M202.684 552.236L197.812 544.444L213.406 534.699L213.318 534.7L218.181 542.488L202.61 552.218L202.684 552.236Z"
          fill="black"
        />
        <path
          d="M181.263 587.258L176.391 579.466L191.985 569.726L191.898 569.728L196.765 577.515L181.167 587.26L181.263 587.258Z"
          fill="black"
        />
        <path
          d="M320.351 619.38L325.213 627.163L317.43 632.026L317.541 632.052L312.673 624.264L320.461 619.42L320.351 619.38Z"
          fill="black"
        />
        <path
          d="M320.461 619.42L312.673 624.283L317.54 632.071L262.975 666.157L258.108 658.342L234.744 672.939L229.918 665.197L214.684 674.716L170.877 604.58L186.102 595.065L181.166 587.26L196.742 577.53L191.874 569.742L207.45 560.012L202.587 552.224L218.158 542.494L213.295 534.706L229.021 524.882L224.281 517.29L232.023 512.464L241.641 527.899L233.999 532.673L238.834 540.415L231.123 545.226L235.953 552.969C236.555 552.649 237.103 552.403 237.604 552.089C267.832 533.2 298.054 514.314 328.271 495.429C328.594 495.227 328.894 494.989 329.18 494.77L338.943 510.395L261.284 558.933L266.1 566.644L297.069 547.296L306.85 562.944L268.098 587.155L272.923 594.875L303.892 575.531L313.665 591.171L274.921 615.381L279.746 623.101L310.716 603.757L320.461 619.42Z"
          fill="white"
        />
      </svg>